<svg width="70" height="70" viewBox="0 0 70 70" fill="none" xmlns="http://www.w3.org/2000/svg">
<path d="M13.475 52.85C16.45 50.575 19.775 48.7812 23.45 47.4688C27.125 46.1562 30.975 45.5 35 45.5C39.025 45.5 42.875 46.1562 46.55 47.4688C50.225 48.7812 53.55 50.575 56.525 52.85C58.5667 50.4583 60.1563 47.7458 61.2938 44.7125C62.4313 41.6792 63 38.4417 63 35C63 27.2417 60.2729 20.6354 54.8188 15.1813C49.3646 9.72708 42.7583 7 35 7C27.2417 7 20.6354 9.72708 15.1813 15.1813C9.72708 20.6354 7 27.2417 7 35C7 38.4417 7.56875 41.6792 8.70625 44.7125C9.84375 47.7458 11.4333 50.4583 13.475 52.85ZM35 38.5C31.5583 38.5 28.6563 37.3188 26.2938 34.9562C23.9313 32.5938 22.75 29.6917 22.75 26.25C22.75 22.8083 23.9313 19.9063 26.2938 17.5438C28.6563 15.1813 31.5583 14 35 14C38.4417 14 41.3438 15.1813 43.7062 17.5438C46.0688 19.9063 47.25 22.8083 47.25 26.25C47.25 29.6917 46.0688 32.5938 43.7062 34.9562C41.3438 37.3188 38.4417 38.5 35 38.5ZM35 70C30.1583 70 25.6083 69.0812 21.35 67.2438C17.0917 65.4062 13.3875 62.9125 10.2375 59.7625C7.0875 56.6125 4.59375 52.9083 2.75625 48.65C0.91875 44.3917 0 39.8417 0 35C0 30.1583 0.91875 25.6083 2.75625 21.35C4.59375 17.0917 7.0875 13.3875 10.2375 10.2375C13.3875 7.0875 17.0917 4.59375 21.35 2.75625C25.6083 0.91875 30.1583 0 35 0C39.8417 0 44.3917 0.91875 48.65 2.75625C52.9083 4.59375 56.6125 7.0875 59.7625 10.2375C62.9125 13.3875 65.4062 17.0917 67.2438 21.35C69.0812 25.6083 70 30.1583 70 35C70 39.8417 69.0812 44.3917 67.2438 48.65C65.4062 52.9083 62.9125 56.6125 59.7625 59.7625C56.6125 62.9125 52.9083 65.4062 48.65 67.2438C44.3917 69.0812 39.8417 70 35 70ZM35 63C38.0917 63 41.0083 62.5479 43.75 61.6438C46.4917 60.7396 49 59.4417 51.275 57.75C49 56.0583 46.4917 54.7604 43.75 53.8563C41.0083 52.9521 38.0917 52.5 35 52.5C31.9083 52.5 28.9917 52.9521 26.25 53.8563C23.5083 54.7604 21 56.0583 18.725 57.75C21 59.4417 23.5083 60.7396 26.25 61.6438C28.9917 62.5479 31.9083 63 35 63ZM35 31.5C36.5167 31.5 37.7708 31.0042 38.7625 30.0125C39.7542 29.0208 40.25 27.7667 40.25 26.25C40.25 24.7333 39.7542 23.4792 38.7625 22.4875C37.7708 21.4958 36.5167 21 35 21C33.4833 21 32.2292 21.4958 31.2375 22.4875C30.2458 23.4792 29.75 24.7333 29.75 26.25C29.75 27.7667 30.2458 29.0208 31.2375 30.0125C32.2292 31.0042 33.4833 31.5 35 31.5Z" fill="black"/>
</svg>
