<svg width="911" height="685" viewBox="0 0 911 685" fill="none" xmlns="http://www.w3.org/2000/svg">
<path d="M534.967 564.148C534.967 563.905 534.967 563.662 534.967 563.423V563.388C534.953 508.501 537.698 492.393 539.413 483.806C540.891 476.417 541.45 466.14 541.474 455.04C541.474 454.79 541.474 454.537 541.474 454.287C541.474 444.714 541.089 434.573 540.558 425.163C521.417 425.84 501.022 419.655 489.523 415.441L480.881 471.571C479.822 476.656 479.458 481.859 479.795 487.037L484.21 589.405H535.151C535.033 580.548 534.977 572.457 534.967 565.054C534.967 564.999 534.967 564.943 534.967 564.891C534.967 564.641 534.967 564.391 534.967 564.145V564.148Z" fill="#513F25"/>
<path d="M602.373 309.866C603.112 309.425 611.88 304.187 623.333 296.024C624.625 295.104 625.943 294.153 627.294 293.161C641.583 282.675 658.826 268.337 669.971 253.326C669.971 253.295 669.964 253.264 669.96 253.236C669.488 249.425 668.818 245.249 667.916 240.671C667.614 239.144 667.288 237.572 666.93 235.955C666.472 233.872 666.045 231.824 665.646 229.811C665.514 229.141 665.382 228.472 665.257 227.809C664.581 224.268 663.994 220.836 663.487 217.507C663.234 215.845 663.001 214.207 662.786 212.593C662.679 211.787 662.574 210.989 662.477 210.194C662.283 208.608 662.102 207.05 661.943 205.516C661.783 203.982 661.641 202.475 661.512 200.99C661.321 198.765 661.172 196.599 661.051 194.489C660.971 193.083 660.908 191.702 660.856 190.345C660.804 188.988 660.77 187.658 660.745 186.35C660.735 185.697 660.724 185.048 660.721 184.41C660.714 183.764 660.714 183.125 660.714 182.49C660.714 181.855 660.718 181.223 660.724 180.602C660.922 161.492 663.841 148.247 665.688 140.021C665.986 138.696 666.253 137.498 666.479 136.429C666.524 136.214 666.569 136.006 666.607 135.804C666.732 135.194 666.84 134.628 666.927 134.107C667.024 133.521 667.111 132.889 667.191 132.212C667.215 131.986 667.243 131.757 667.263 131.521C667.295 131.209 667.322 130.886 667.35 130.557C667.458 129.238 667.534 127.787 667.579 126.221C667.593 125.701 667.604 125.166 667.611 124.618C667.614 124.344 667.618 124.066 667.618 123.788C667.618 123.379 667.618 122.962 667.618 122.539C667.618 122.109 667.614 121.671 667.607 121.227C667.6 120.633 667.59 120.026 667.576 119.412C667.562 118.797 667.545 118.169 667.52 117.534C667.499 116.899 667.472 116.25 667.444 115.594C667.385 114.282 667.312 112.932 667.225 111.547C667.139 110.162 667.038 108.746 666.92 107.299C666.892 106.938 666.861 106.573 666.83 106.209C666.736 105.112 666.635 104.001 666.528 102.877C666.455 102.127 666.378 101.37 666.299 100.61C666.181 99.4684 666.052 98.3127 665.913 97.1499C665.393 92.683 664.751 88.0634 663.99 83.3951C663.8 82.2289 663.602 81.0593 663.397 79.8861C662.783 76.3702 662.099 72.8439 661.346 69.3522C660.374 64.8367 658.163 61.2201 655.171 58.3255C654.744 57.9124 654.3 57.5133 653.842 57.128C653.231 56.6143 652.596 56.1284 651.936 55.6668C651.277 55.2052 650.597 54.7644 649.896 54.3479C649.194 53.9314 648.476 53.5392 647.737 53.1678C647.244 52.9214 646.747 52.6819 646.244 52.4528C645.488 52.1092 644.717 51.7864 643.933 51.4845C642.357 50.8736 640.736 50.3426 639.098 49.8844C638.945 49.8428 638.796 49.8011 638.643 49.763C638.477 49.7178 638.31 49.6727 638.143 49.6276C636.804 49.2736 635.453 48.9647 634.11 48.694C633.506 48.5725 632.906 48.4614 632.309 48.3573C631.708 48.2532 631.115 48.156 630.521 48.0623C629.334 47.8818 628.165 47.7291 627.016 47.5972C626.443 47.5312 625.874 47.4757 625.315 47.4202C624.756 47.3646 624.201 47.3195 623.66 47.2779C623.118 47.2362 622.58 47.198 622.056 47.1668C621.532 47.1356 621.015 47.1043 620.512 47.08C618.724 46.9933 617.079 46.9585 615.628 46.9551C612.185 46.9655 610.023 47.1356 610.023 47.1356C601.488 49.5651 596.157 50.4016 588.775 50.6862C584.908 50.8354 580.476 50.8354 574.732 50.8354C568.987 50.8354 564.226 54.0078 560.38 58.3949C560.029 58.794 559.689 59.2036 559.352 59.6201C558.683 60.4565 558.044 61.3242 557.433 62.2162C557.128 62.664 556.829 63.1152 556.541 63.5698C556.253 64.0245 555.968 64.4861 555.691 64.9478C555.278 65.6419 554.879 66.343 554.5 67.0441C554.118 67.7452 553.754 68.4498 553.403 69.1474C553.171 69.6125 552.945 70.0776 552.727 70.5392C552.508 71.0009 552.296 71.459 552.092 71.9102C551.887 72.3649 551.689 72.8126 551.498 73.2534C551.404 73.4755 551.311 73.6942 551.217 73.9129C551.033 74.3502 550.856 74.7771 550.686 75.2005C550.346 76.0405 550.033 76.8492 549.745 77.6127C548.815 80.0944 548.17 82.1005 547.795 83.2285C547.684 83.5652 547.58 84.0025 547.489 84.537C547.434 84.8598 547.382 85.2138 547.333 85.6026C547.302 85.8629 547.271 86.1336 547.239 86.4217C547.194 86.852 547.153 87.3137 547.114 87.8065C547.09 88.1362 547.062 88.4764 547.042 88.8304C546.948 90.2465 546.875 91.8639 546.816 93.6444C546.802 94.0887 546.788 94.5468 546.774 95.0119C546.76 95.477 546.75 95.9525 546.74 96.4384C546.719 97.4103 546.701 98.4168 546.687 99.458C546.677 100.239 546.667 101.037 546.66 101.853C546.656 102.398 546.649 102.95 546.649 103.505C546.649 104.064 546.642 104.63 546.642 105.199C546.639 106.341 546.635 107.51 546.639 108.701C546.639 108.999 546.639 109.298 546.639 109.596C546.646 115.892 546.712 122.74 546.767 129.498C546.792 132.177 546.812 134.846 546.83 137.46C546.83 137.46 546.83 137.46 546.83 137.463C546.83 137.495 546.83 137.526 546.83 137.557C548.305 147.702 550.453 157.348 552.931 166.24C553.494 168.253 554.07 170.235 554.663 172.168C555.198 173.914 555.743 175.625 556.295 177.301C556.847 178.978 557.409 180.616 557.971 182.216C558.492 183.691 559.078 185.079 559.72 186.391C567.276 201.76 582.805 206.012 594.578 206.862C596.358 206.991 598.045 207.036 599.614 207.036C600.457 207.029 601.259 207.005 602.016 206.973C602.252 206.963 602.484 206.953 602.713 206.939C604.306 206.855 605.66 206.73 606.708 206.612C607.121 206.567 607.489 206.519 607.802 206.477C608.367 206.401 608.759 206.338 608.957 206.307C609.055 206.29 609.107 206.283 609.107 206.283V206.321V206.387C609.332 206.352 609.506 206.324 609.613 206.307C609.71 206.29 609.763 206.283 609.763 206.283C609.763 206.283 617.881 204.502 627.339 201.226C630.91 199.99 634.669 198.536 638.258 196.887C638.241 196.901 638.227 196.911 638.209 196.925C642.402 195.003 646.362 192.812 649.51 190.376C649.531 190.359 649.555 190.345 649.576 190.327C649.576 190.327 643.336 200.837 627.377 208.525C622.532 210.861 616.801 212.936 610.061 214.377C610.061 214.377 610.058 214.377 610.054 214.377V214.37L609.908 209.743L610.058 214.429V214.443C610.058 214.443 610.061 214.443 610.064 214.443L610.727 234.955C610.727 234.955 610.7 234.955 610.686 234.955C610.665 234.955 610.641 234.955 610.62 234.952C610.474 234.941 610.328 234.934 610.179 234.924C610.13 234.924 610.082 234.917 610.033 234.917V234.959C610.033 234.959 610.005 234.959 609.992 234.959C609.971 234.959 609.947 234.959 609.926 234.955C609.78 234.945 609.634 234.938 609.485 234.927C609.1 234.903 608.694 234.882 608.27 234.858C608.27 234.865 608.267 234.868 608.263 234.875C608.971 234.91 609.645 234.948 610.266 234.986C610.356 235.136 610.391 235.188 610.481 235.337C609.016 238.863 596.653 269.632 599.229 296.048C599.239 296.142 599.249 296.232 599.26 296.322C599.319 296.656 599.378 296.985 599.444 297.319C599.954 301.681 600.881 305.909 602.359 309.855L602.373 309.866Z" fill="#513F25"/>
<path d="M602.373 310.909C603.112 310.468 611.88 305.23 623.333 297.067C624.625 296.147 625.943 295.196 627.294 294.203C641.583 283.718 658.826 269.38 669.971 254.369C669.971 254.338 669.964 254.307 669.96 254.279C669.488 250.468 668.818 246.292 667.916 241.714C667.614 240.187 667.288 238.615 666.93 236.998C666.472 234.915 666.045 232.867 665.646 230.854C665.514 230.184 665.382 229.514 665.257 228.852C664.581 225.311 663.994 221.879 663.487 218.55C663.234 216.888 663.001 215.249 662.786 213.636C662.679 212.83 662.574 212.032 662.477 211.237C662.283 209.651 662.102 208.093 661.943 206.559C661.783 205.024 661.641 203.518 661.512 202.033C661.321 199.808 661.172 197.642 661.051 195.532C660.971 194.126 660.908 192.745 660.856 191.388C660.804 190.031 660.77 188.701 660.745 187.393C660.735 186.74 660.724 186.091 660.721 185.453C660.714 184.807 660.714 184.168 660.714 183.533C660.714 182.898 660.718 182.266 660.724 181.645C660.922 162.535 663.841 149.29 665.688 141.064C665.986 139.739 666.253 138.541 666.479 137.472C666.524 137.257 666.569 137.049 666.607 136.847C666.732 136.236 666.84 135.671 666.927 135.15C667.024 134.564 667.111 133.932 667.191 133.255C667.215 133.029 667.243 132.8 667.263 132.564C667.295 132.252 667.322 131.929 667.35 131.599C667.458 130.281 667.534 128.83 667.579 127.264C667.593 126.744 667.604 126.209 667.611 125.661C667.614 125.387 667.618 125.109 667.618 124.831C667.618 124.422 667.618 124.005 667.618 123.582C667.618 123.152 667.614 122.714 667.607 122.27C667.6 121.676 667.59 121.069 667.576 120.455C667.562 119.84 667.545 119.212 667.52 118.577C667.499 117.942 667.472 117.293 667.444 116.637C667.385 115.325 667.312 113.975 667.225 112.59C667.139 111.205 667.038 109.789 666.92 108.342C666.892 107.981 666.861 107.616 666.83 107.252C666.736 106.155 666.635 105.044 666.528 103.92C666.455 103.17 666.378 102.413 666.299 101.653C666.181 100.511 666.052 99.3556 665.913 98.1929C665.393 93.726 664.751 89.1063 663.99 84.4381C663.8 83.2719 663.602 82.1022 663.397 80.9291C662.783 77.4132 662.099 73.8868 661.346 70.3952C660.374 65.8797 658.163 62.2631 655.171 59.3684C654.744 58.9554 654.3 58.5563 653.842 58.171C653.231 57.6573 652.596 57.1714 651.936 56.7098C651.277 56.2482 650.597 55.8074 649.896 55.3909C649.194 54.9744 648.476 54.5822 647.737 54.2108C647.244 53.9644 646.747 53.7249 646.244 53.4958C645.488 53.1522 644.717 52.8294 643.933 52.5275C642.357 51.9166 640.736 51.3856 639.098 50.9274C638.945 50.8858 638.796 50.8441 638.643 50.8059C638.477 50.7608 638.31 50.7157 638.143 50.6706C636.804 50.3165 635.453 50.0076 634.11 49.7369C633.506 49.6154 632.906 49.5044 632.309 49.4003C631.708 49.2961 631.115 49.1989 630.521 49.1052C629.334 48.9247 628.165 48.772 627.016 48.6401C626.443 48.5742 625.874 48.5187 625.315 48.4631C624.756 48.4076 624.201 48.3625 623.66 48.3208C623.118 48.2792 622.58 48.241 622.056 48.2098C621.532 48.1785 621.015 48.1473 620.512 48.123C618.724 48.0362 617.079 48.0015 615.628 47.998C612.185 48.0085 610.023 48.1785 610.023 48.1785C601.488 50.6081 596.157 51.4446 588.775 51.7292C584.908 51.8784 580.476 51.8784 574.732 51.8784C568.987 51.8784 564.226 55.0507 560.38 59.4378C560.029 59.837 559.689 60.2465 559.352 60.663C558.683 61.4995 558.044 62.3672 557.433 63.2592C557.128 63.7069 556.829 64.1581 556.541 64.6128C556.253 65.0675 555.968 65.5291 555.691 65.9907C555.278 66.6849 554.879 67.386 554.5 68.0871C554.118 68.7882 553.754 69.4928 553.403 70.1904C553.171 70.6555 552.945 71.1206 552.727 71.5822C552.508 72.0438 552.296 72.502 552.092 72.9532C551.887 73.4079 551.689 73.8556 551.498 74.2964C551.404 74.5185 551.311 74.7372 551.217 74.9558C551.033 75.3932 550.856 75.8201 550.686 76.2435C550.346 77.0834 550.033 77.8921 549.745 78.6557C548.815 81.1373 548.17 83.1435 547.795 84.2715C547.684 84.6082 547.58 85.0455 547.489 85.58C547.434 85.9028 547.382 86.2568 547.333 86.6455C547.302 86.9058 547.271 87.1766 547.239 87.4646C547.194 87.895 547.153 88.3566 547.114 88.8495C547.09 89.1792 547.062 89.5194 547.042 89.8734C546.948 91.2895 546.875 92.9069 546.816 94.6874C546.802 95.1317 546.788 95.5898 546.774 96.0549C546.76 96.52 546.75 96.9955 546.74 97.4814C546.719 98.4532 546.701 99.4598 546.687 100.501C546.677 101.282 546.667 102.08 546.66 102.896C546.656 103.441 546.649 103.993 546.649 104.548C546.649 105.107 546.642 105.673 546.642 106.242C546.639 107.384 546.635 108.553 546.639 109.744C546.639 110.042 546.639 110.341 546.639 110.639C546.646 116.935 546.712 123.783 546.767 130.541C546.792 133.22 546.812 135.889 546.83 138.503C546.83 138.503 546.83 138.503 546.83 138.506C546.83 138.538 546.83 138.569 546.83 138.6C548.305 148.745 550.453 158.391 552.931 167.283C553.494 169.296 554.07 171.278 554.663 173.211C555.198 174.957 555.743 176.668 556.295 178.344C556.847 180.021 557.409 181.659 557.971 183.259C558.492 184.734 559.078 186.122 559.72 187.434C567.276 202.803 582.805 207.055 594.578 207.905C596.358 208.034 598.045 208.079 599.614 208.079C600.457 208.072 601.259 208.048 602.016 208.016C602.252 208.006 602.484 207.995 602.713 207.982C604.306 207.898 605.66 207.773 606.708 207.655C607.121 207.61 607.489 207.562 607.802 207.52C608.367 207.444 608.759 207.381 608.957 207.35C609.055 207.333 609.107 207.326 609.107 207.326V207.364V207.43C609.332 207.395 609.506 207.367 609.613 207.35C609.71 207.333 609.763 207.326 609.763 207.326C609.763 207.326 617.881 205.545 627.339 202.269C630.91 201.033 634.669 199.579 638.258 197.93C638.241 197.944 638.227 197.954 638.209 197.968C642.402 196.045 646.362 193.855 649.51 191.419C649.531 191.402 649.555 191.388 649.576 191.37C649.576 191.37 643.336 201.88 627.377 209.568C622.532 211.904 616.801 213.979 610.061 215.42C610.061 215.42 610.058 215.42 610.054 215.42V215.413L609.908 210.786L610.058 215.472V215.485C610.058 215.485 610.061 215.485 610.064 215.485L610.727 235.998C610.727 235.998 610.7 235.998 610.686 235.998C610.665 235.998 610.641 235.998 610.62 235.995C610.474 235.984 610.328 235.977 610.179 235.967C610.13 235.967 610.082 235.96 610.033 235.96V236.001C610.033 236.001 610.005 236.001 609.992 236.001C609.971 236.001 609.947 236.001 609.926 235.998C609.78 235.988 609.634 235.981 609.485 235.97C609.1 235.946 608.694 235.925 608.27 235.901C608.27 235.908 608.267 235.911 608.263 235.918C608.971 235.953 609.645 235.991 610.266 236.029C610.356 236.178 610.391 236.231 610.481 236.38C609.016 239.906 596.653 270.675 599.229 297.091C599.239 297.185 599.249 297.275 599.26 297.365C599.319 297.699 599.378 298.028 599.444 298.362C599.954 302.724 600.881 306.952 602.359 310.898L602.373 310.909Z" fill="#513F25"/>
<path d="M603.067 301.883C603.807 301.442 612.574 296.205 624.028 288.042C625.319 287.122 626.638 286.171 627.988 285.178C642.277 274.693 659.52 260.355 670.665 245.344C670.665 245.312 670.658 245.281 670.654 245.253C670.182 241.442 669.512 237.267 668.61 232.689C668.308 231.162 667.982 229.59 667.624 227.972C667.166 225.89 666.739 223.842 666.34 221.829C666.208 221.159 666.076 220.489 665.951 219.826C665.275 216.286 664.688 212.853 664.181 209.525C663.928 207.862 663.695 206.224 663.48 204.61C663.373 203.805 663.268 203.007 663.171 202.212C662.977 200.626 662.796 199.067 662.637 197.533C662.477 195.999 662.335 194.493 662.206 193.007C662.016 190.782 661.866 188.617 661.745 186.506C661.665 185.101 661.603 183.719 661.55 182.362C661.498 181.005 661.464 179.676 661.439 178.367C661.429 177.715 661.419 177.066 661.415 176.427C661.408 175.782 661.408 175.143 661.408 174.508C661.408 173.873 661.412 173.241 661.419 172.62C661.616 153.509 664.535 140.265 666.382 132.039C666.68 130.713 666.948 129.516 667.173 128.447C667.218 128.232 667.263 128.023 667.302 127.822C667.427 127.211 667.534 126.645 667.621 126.125C667.718 125.538 667.805 124.906 667.885 124.23C667.909 124.004 667.937 123.775 667.958 123.539C667.989 123.227 668.017 122.904 668.044 122.574C668.152 121.255 668.228 119.804 668.273 118.239C668.287 117.718 668.298 117.184 668.305 116.636C668.308 116.361 668.312 116.084 668.312 115.806C668.312 115.396 668.312 114.98 668.312 114.557C668.312 114.126 668.308 113.689 668.301 113.245C668.294 112.651 668.284 112.044 668.27 111.429C668.256 110.815 668.239 110.187 668.214 109.552C668.194 108.916 668.166 108.267 668.138 107.611C668.079 106.299 668.006 104.949 667.919 103.564C667.833 102.18 667.732 100.764 667.614 99.3162C667.586 98.9552 667.555 98.5908 667.524 98.2263C667.43 97.1296 667.329 96.0189 667.222 94.8944C667.149 94.1447 667.073 93.388 666.993 92.6279C666.875 91.486 666.746 90.3302 666.607 89.1675C666.087 84.7006 665.445 80.0809 664.685 75.4127C664.494 74.2465 664.296 73.0768 664.091 71.9037C663.477 68.3878 662.793 64.8614 662.04 61.3698C661.068 56.8543 658.857 53.2377 655.865 50.343C655.438 49.93 654.994 49.5309 654.536 49.1456C653.925 48.6319 653.29 48.146 652.63 47.6844C651.971 47.2228 651.291 46.782 650.59 46.3655C649.889 45.949 649.17 45.5568 648.431 45.1854C647.938 44.939 647.442 44.6995 646.938 44.4704C646.182 44.1268 645.411 43.804 644.627 43.5021C643.051 42.8912 641.43 42.3602 639.792 41.902C639.639 41.8604 639.49 41.8187 639.337 41.7805C639.171 41.7354 639.004 41.6903 638.837 41.6452C637.498 41.2912 636.148 40.9823 634.804 40.7115C634.2 40.5901 633.6 40.479 633.003 40.3749C632.403 40.2707 631.809 40.1736 631.216 40.0798C630.029 39.8994 628.859 39.7466 627.71 39.6148C627.137 39.5488 626.568 39.4933 626.009 39.4377C625.451 39.3822 624.895 39.3371 624.354 39.2954C623.812 39.2538 623.274 39.2156 622.75 39.1844C622.226 39.1531 621.709 39.1219 621.206 39.0976C619.418 39.0108 617.773 38.9761 616.322 38.9727C612.879 38.9831 610.717 39.1531 610.717 39.1531C602.182 41.5827 596.851 42.4192 589.469 42.7038C585.602 42.853 581.17 42.853 575.426 42.853C569.682 42.853 564.92 46.0253 561.074 50.4124C560.723 50.8116 560.383 51.2211 560.047 51.6376C559.377 52.4741 558.738 53.3418 558.127 54.2338C557.822 54.6815 557.523 55.1327 557.235 55.5874C556.947 56.0421 556.663 56.5037 556.385 56.9653C555.972 57.6595 555.573 58.3606 555.194 59.0617C554.813 59.7628 554.448 60.4674 554.098 61.165C553.865 61.6301 553.639 62.0952 553.421 62.5568C553.202 63.0184 552.99 63.4766 552.786 63.9278C552.581 64.3825 552.383 64.8302 552.192 65.271C552.098 65.4931 552.005 65.7118 551.911 65.9304C551.727 66.3678 551.55 66.7947 551.38 67.2181C551.04 68.0581 550.727 68.8667 550.439 69.6303C549.509 72.112 548.864 74.1181 548.489 75.2461C548.378 75.5828 548.274 76.0201 548.183 76.5546C548.128 76.8774 548.076 77.2314 548.027 77.6201C547.996 77.8804 547.965 78.1512 547.933 78.4392C547.888 78.8696 547.847 79.3312 547.808 79.8241C547.784 80.1538 547.756 80.494 547.736 80.848C547.642 82.2641 547.569 83.8815 547.51 85.662C547.496 86.1063 547.482 86.5644 547.468 87.0295C547.454 87.4946 547.444 87.9701 547.434 88.456C547.413 89.4278 547.395 90.4344 547.382 91.4756C547.371 92.2565 547.361 93.0548 547.354 93.8705C547.35 94.4154 547.343 94.9672 547.343 95.5226C547.343 96.0814 547.336 96.6471 547.336 97.2163C547.333 98.3582 547.33 99.5279 547.333 100.718C547.333 101.017 547.333 101.315 547.333 101.614C547.34 107.91 547.406 114.758 547.461 121.515C547.486 124.195 547.507 126.864 547.524 129.478C547.524 129.478 547.524 129.478 547.524 129.481C547.524 129.512 547.524 129.543 547.524 129.575C548.999 139.72 551.147 149.365 553.626 158.257C554.188 160.271 554.764 162.252 555.357 164.186C555.892 165.931 556.437 167.643 556.989 169.319C557.541 170.995 558.103 172.634 558.665 174.234C559.186 175.709 559.772 177.097 560.414 178.409C567.97 193.778 583.499 198.03 595.272 198.88C597.052 199.008 598.739 199.053 600.308 199.053C601.151 199.046 601.953 199.022 602.71 198.991C602.946 198.981 603.178 198.97 603.407 198.956C605.001 198.873 606.354 198.748 607.402 198.63C607.815 198.585 608.183 198.536 608.496 198.495C609.061 198.418 609.454 198.356 609.651 198.325C609.749 198.307 609.801 198.3 609.801 198.3V198.338V198.404C610.026 198.37 610.2 198.342 610.307 198.325C610.405 198.307 610.457 198.3 610.457 198.3C610.457 198.3 618.575 196.52 628.033 193.243C631.604 192.008 635.363 190.553 638.952 188.905C638.935 188.919 638.921 188.929 638.903 188.943C643.096 187.02 647.056 184.83 650.204 182.394C650.225 182.376 650.25 182.362 650.27 182.345C650.27 182.345 644.03 192.855 628.071 200.542C623.226 202.878 617.495 204.954 610.755 206.394C610.755 206.394 610.752 206.394 610.748 206.394V206.387L610.602 201.761L610.752 206.446V206.46C610.752 206.46 610.755 206.46 610.759 206.46L611.422 226.973C611.422 226.973 611.394 226.973 611.38 226.973C611.359 226.973 611.335 226.973 611.314 226.969C611.168 226.959 611.022 226.952 610.873 226.941C610.825 226.941 610.776 226.934 610.727 226.934V226.976C610.727 226.976 610.7 226.976 610.686 226.976C610.665 226.976 610.641 226.976 610.62 226.973C610.474 226.962 610.328 226.955 610.179 226.945C609.794 226.921 609.388 226.9 608.964 226.875C608.964 226.882 608.961 226.886 608.957 226.893C609.665 226.928 610.339 226.966 610.96 227.004C611.05 227.153 611.085 227.205 611.175 227.354C609.71 230.881 597.347 261.649 599.923 288.066C599.933 288.16 599.944 288.25 599.954 288.34C600.013 288.673 600.072 289.003 600.138 289.336C600.648 293.699 601.575 297.926 603.053 301.873L603.067 301.883Z" fill="#513F25"/>
<path d="M561.459 97.0184C561.018 97.5599 560.158 97.4766 559.811 96.8726C559.009 95.4843 558.28 93.0756 560.689 90.6634C563.493 87.8589 567.356 90.3649 569.064 91.7463C569.4 92.0204 569.265 92.5584 568.838 92.6278C567.2 92.902 564.035 93.8391 561.459 97.0149V97.0184Z" fill="#513F25"/>
<path d="M571.792 118.416C568.727 118.416 566.242 115.931 566.242 112.866C566.242 109.802 568.727 107.316 571.792 107.316C574.857 107.316 577.342 109.802 577.342 112.866C577.342 115.931 574.857 118.416 571.792 118.416Z" fill="#513F25"/>
<path d="M581.621 142.97L590.201 131.423L601.419 118.227L600.429 131.093L599.111 149.568L583.933 148.249C581.885 147.878 580.403 144.657 581.625 142.97H581.621Z" fill="#513F25"/>
<path d="M616.815 168.023C616.416 171.345 614.143 176.384 605.677 178.193C597.257 179.994 593.228 174.749 591.471 171.018C590.951 169.908 591.676 168.623 592.894 168.502L615.111 166.274C616.111 166.173 616.933 167.023 616.812 168.023H616.815Z" fill="#513F25"/>
<path d="M629.144 122.115C632.209 122.115 634.693 119.631 634.693 116.565C634.693 113.5 632.209 111.016 629.144 111.016C626.078 111.016 623.594 113.5 623.594 116.565C623.594 119.631 626.078 122.115 629.144 122.115Z" fill="#513F25"/>
<path d="M642.659 98.821C642.402 99.4284 641.663 99.6609 641.09 99.3312C639.042 98.1615 634.308 95.5723 631.039 94.6768C630.195 94.4443 629.935 93.4031 630.563 92.7957C632.566 90.8555 636.404 88.1066 640.243 90.6646C644.273 93.351 643.426 97.0162 642.659 98.8175V98.821Z" fill="#513F25"/>
<path d="M717.826 462.199L743.306 538.404C744.541 538.106 745.693 537.79 746.703 537.457C747.825 537.085 748.765 536.696 749.449 536.287C753.197 534.038 766.498 531.226 775.043 530.376C761.152 482.465 738.263 443.873 737.377 439.437C735.527 430.188 754.027 369.136 754.027 369.136L806.023 430.962C811.538 429.483 816.64 427.793 821.361 425.943C821.368 425.943 821.375 425.936 821.382 425.932C821.375 425.925 821.368 425.915 821.361 425.908C854.58 412.903 868.89 391.995 874.443 380.774L874.454 380.788C876.776 376.095 877.563 373.103 877.563 373.103C877.563 373.103 814.155 286.808 787.329 254.433C778.357 243.607 760.354 238.543 745.322 236.173C744.808 245.787 743.795 255.03 742.469 263.8C738.353 291.06 731.234 313.7 726.736 328.451C724.712 335.091 723.217 340.134 722.765 343.279C722.488 345.222 716.313 401.671 714.432 403.015C710.624 405.732 704.026 407.18 696.606 407.194C696.488 407.194 696.37 407.194 696.255 407.194C696.217 407.194 696.175 407.194 696.137 407.194C696.082 407.194 696.026 407.194 695.971 407.194C695.953 407.194 695.932 407.194 695.915 407.194C685.048 407.214 672.432 404.17 664.293 397.565C662.45 396.07 660.832 394.393 659.52 392.526C657.032 388.982 656.244 374.735 656.251 359.963C656.258 343.22 657.282 325.806 657.997 322.551C660.648 310.518 670.245 282.824 670.387 261.065C670.405 258.393 670.28 255.814 669.981 253.36C658.836 268.371 641.593 282.713 627.301 293.202C625.951 294.191 624.632 295.145 623.34 296.065C611.887 304.228 603.12 309.466 602.38 309.907C602.346 309.928 602.325 309.941 602.325 309.941C600.725 305.676 599.767 301.077 599.284 296.339C599.274 296.249 599.263 296.155 599.253 296.065C596.678 269.645 609.044 238.88 610.505 235.354C610.415 235.204 610.38 235.152 610.29 235.003C609.669 234.965 608.996 234.927 608.288 234.892C602.311 234.59 593.526 234.371 587.379 234.24C585.984 234.212 584.731 234.184 583.673 234.167C582.437 234.149 581.316 234.135 580.344 234.125C580.337 234.132 580.334 234.135 580.33 234.139C580.278 236.836 580.219 239.866 580.216 243.042C580.216 251.156 580.601 260.222 582.503 267.094C583.707 271.443 583.971 288.325 584.027 297.44C584.034 298.373 584.037 299.224 584.037 299.973C584.037 300.227 584.037 300.47 584.037 300.699C584.037 301.073 584.037 301.417 584.037 301.719C584.037 302.75 584.037 303.343 584.037 303.361C584.058 304.017 584.096 305.912 584.096 308.546C584.096 316.446 583.745 330.971 581.51 338.399C580.577 341.498 580.136 348.047 580.132 354.632C580.132 362.58 580.771 370.576 581.968 372.621C582.517 374.339 582.784 376.078 582.794 377.792C582.812 380.649 582.121 383.429 580.833 385.907C580.656 386.247 580.472 386.58 580.275 386.907C578.258 390.239 575.117 392.922 571.16 394.32L565.392 396.361C562.06 397.541 558.554 398.114 555.042 398.076C553.421 398.097 551.793 397.989 550.179 397.743L541.204 396.385C540.142 396.226 538.962 396.063 537.716 395.886C533.148 395.23 527.636 394.327 523.402 392.3C520.781 391.047 518.654 389.36 517.543 387.038C516.967 385.838 516.665 384.463 516.707 382.891C516.714 382.665 516.728 382.436 516.745 382.2C516.929 381.1 517.002 379.948 517.002 378.719C516.998 373.183 515.471 366.064 515.44 354.809C515.423 348.554 515.867 341.026 517.29 331.783C518.938 321.083 519.417 309.955 519.417 300.046C519.417 286.465 518.522 275.164 518.501 270.357C500.779 310.486 480.222 411.688 480.222 411.688C480.222 411.688 483.755 413.309 489.534 415.426C501.033 419.64 521.427 425.825 540.569 425.148C541.1 434.564 541.485 444.713 541.485 454.289C541.485 454.539 541.485 454.792 541.485 455.042C541.485 455.049 541.485 455.056 541.485 455.063C541.461 466.17 540.902 476.45 539.423 483.843C537.705 492.426 534.963 508.534 534.977 563.408V563.425C534.977 563.665 534.977 563.908 534.977 564.151C534.977 564.4 534.977 564.647 534.977 564.897C534.977 564.952 534.977 565.008 534.977 565.06C534.987 572.456 535.043 580.543 535.161 589.394L625.721 591.206L596.199 502.901H596.209L596.199 502.866L717.833 462.199H717.826Z" fill="#8BD3E2"/>
<path d="M756.456 551.306C756.456 551.306 754.485 551.598 751.531 551.827C750.428 551.914 749.188 551.99 747.863 552.042L750.521 559.99C752.996 557.248 755.051 554.367 756.456 551.303V551.306Z" fill="#8BD3E2"/>
<path d="M629.144 122.115C632.209 122.115 634.693 119.631 634.693 116.565C634.693 113.5 632.209 111.016 629.144 111.016C626.078 111.016 623.594 113.5 623.594 116.565C623.594 119.631 626.078 122.115 629.144 122.115Z" fill="black"/>
<path d="M571.792 107.316C568.727 107.316 566.242 109.802 566.242 112.866C566.242 115.931 568.727 118.416 571.792 118.416C574.857 118.416 577.342 115.931 577.342 112.866C577.342 109.802 574.857 107.316 571.792 107.316Z" fill="black"/>
<path d="M640.243 90.6665C636.404 88.1086 632.566 90.8574 630.563 92.7976C629.935 93.405 630.195 94.4463 631.039 94.6788C634.308 95.5743 639.042 98.1635 641.09 99.3332C641.663 99.6594 642.402 99.4303 642.659 98.823C643.426 97.0181 644.273 93.3564 640.243 90.67V90.6665Z" fill="black"/>
<path d="M569.067 91.7467C567.356 90.3653 563.493 87.8628 560.692 90.6638C558.283 93.0725 559.012 95.4847 559.814 96.8731C560.165 97.477 561.022 97.5603 561.463 97.0188C564.042 93.8396 567.203 92.9059 568.842 92.6317C569.272 92.5588 569.407 92.0209 569.067 91.7501V91.7467Z" fill="black"/>
<path d="M600.43 131.093L601.419 118.227L590.201 131.423L581.621 142.97C580.403 144.657 581.882 147.878 583.929 148.249L599.107 149.568L600.426 131.093H600.43Z" fill="#382B1A"/>
<path d="M615.115 166.274L592.898 168.502C591.68 168.623 590.951 169.908 591.475 171.018C593.231 174.749 597.261 179.994 605.681 178.193C614.146 176.381 616.42 171.345 616.819 168.023C616.94 167.023 616.118 166.173 615.118 166.274H615.115Z" fill="#332031"/>
<path d="M610.078 214.382V214.389C610.078 214.389 610.082 214.389 610.085 214.389C616.822 212.949 622.552 210.87 627.401 208.537C643.36 200.849 649.6 190.34 649.6 190.34C649.58 190.357 649.555 190.371 649.535 190.388C646.387 192.828 642.423 195.018 638.234 196.938C634.669 198.573 630.941 200.013 627.398 201.238C617.94 204.515 609.822 206.295 609.822 206.295L609.929 209.756L610.075 214.382H610.078Z" fill="#382B1A"/>
<path d="M713.398 608.383C696.797 590.907 733.566 578.77 750.521 559.993L747.863 552.045L743.302 538.404L717.823 462.199L596.188 502.867L596.199 502.898L625.711 591.171L656.823 684.23L778.458 643.563L767.535 610.892C741.459 622.155 729.606 625.449 713.394 608.383H713.398Z" fill="#636363"/>
<path d="M905.66 421.131L874.45 380.789L874.44 380.775C868.886 391.997 854.573 412.905 821.357 425.91C821.364 425.917 821.371 425.927 821.378 425.934C825.321 430.391 829.992 435.586 832.557 438.155C837.566 443.163 833.56 446.165 831.554 450.171C829.552 454.176 830.551 455.179 817.536 480.211C804.517 505.246 786.493 531.28 781.488 530.281C780.231 530.031 777.906 530.093 775.049 530.378C775.049 530.378 775.043 530.378 775.039 530.378C766.494 531.228 753.194 534.039 749.445 536.289C748.762 536.698 747.821 537.09 746.7 537.458C745.69 537.791 744.538 538.107 743.302 538.406L747.863 552.046C749.188 551.994 750.428 551.918 751.531 551.831C754.485 551.598 756.456 551.31 756.456 551.31C755.054 554.371 752.999 557.256 750.521 559.998C733.563 578.775 696.793 590.912 713.397 608.388C729.61 625.454 741.462 622.156 767.539 610.897C772.065 608.943 777.01 606.753 782.491 604.382C819.542 588.361 893.644 480.214 905.66 460.184C917.676 440.154 905.66 421.131 905.66 421.131Z" fill="#513F25"/>
<path d="M519.407 300.043C519.407 309.956 518.924 321.08 517.279 331.784C515.856 341.026 515.412 348.555 515.429 354.806C515.461 366.061 516.988 373.18 516.991 378.716C516.991 379.948 516.918 381.1 516.734 382.201C516.714 382.433 516.7 382.662 516.696 382.888C516.655 384.46 516.956 385.835 517.533 387.036C518.643 389.358 520.771 391.044 523.391 392.297C527.626 394.324 533.137 395.227 537.705 395.883C538.951 396.063 540.135 396.223 541.193 396.382L550.169 397.74C551.783 397.983 553.41 398.09 555.031 398.073C558.544 398.111 562.049 397.535 565.381 396.358L571.15 394.317C575.106 392.919 578.248 390.236 580.264 386.904C580.462 386.577 580.649 386.244 580.823 385.904C582.111 383.426 582.801 380.642 582.784 377.789C582.773 376.078 582.506 374.339 581.958 372.621C580.76 370.577 580.118 362.577 580.122 354.629C580.122 348.044 580.566 341.495 581.5 338.396C583.735 330.968 584.085 316.443 584.085 308.543C584.085 305.909 584.047 304.014 584.026 303.358C584.026 303.337 584.026 302.743 584.026 301.713C584.026 301.407 584.026 301.067 584.026 300.692C584.026 300.463 584.026 300.22 584.026 299.967C584.026 299.217 584.02 298.367 584.016 297.433C583.961 288.315 583.697 271.437 582.492 267.091C580.59 260.219 580.202 251.153 580.205 243.035C580.205 239.859 580.268 236.829 580.32 234.132C580.32 234.129 580.32 234.126 580.32 234.122C580.32 234.122 580.32 234.08 580.32 234.063C580.913 234.073 581.861 234.091 583.072 234.112C584.127 234.132 585.377 234.157 586.765 234.185C593.13 234.32 602.335 234.549 608.287 234.868C608.707 234.893 609.113 234.913 609.502 234.938C609.648 234.948 609.797 234.955 609.943 234.965C609.964 234.965 609.988 234.965 610.009 234.969C610.023 234.969 610.037 234.969 610.051 234.969V234.927C610.099 234.927 610.148 234.934 610.196 234.934C610.342 234.945 610.491 234.952 610.637 234.962C610.658 234.962 610.682 234.962 610.703 234.965C610.717 234.965 610.731 234.965 610.745 234.965L610.082 214.453C610.082 214.453 610.078 214.453 610.075 214.453V214.439L609.926 209.753L609.818 206.39V206.297C609.818 206.297 609.766 206.307 609.669 206.321C609.554 206.342 609.367 206.369 609.127 206.404V206.397V206.356V206.335C609.127 206.335 609.075 206.345 608.978 206.359C608.78 206.394 608.388 206.456 607.822 206.529C607.51 206.571 607.142 206.616 606.729 206.664C605.681 206.782 604.324 206.907 602.734 206.991C602.505 207.001 602.276 207.015 602.036 207.025C601.28 207.057 600.478 207.081 599.635 207.088C599.59 207.088 599.544 207.088 599.499 207.088C597.969 207.088 596.327 207.036 594.599 206.911C582.826 206.061 567.297 201.809 559.741 186.44C559.099 185.132 558.513 183.74 557.992 182.265C557.426 180.665 556.867 179.023 556.315 177.35C555.764 175.674 555.219 173.962 554.684 172.217C554.091 170.283 553.515 168.302 552.952 166.288C550.471 157.396 548.322 147.751 546.851 137.606C546.851 137.561 546.851 137.519 546.851 137.474C546.833 134.86 546.812 132.191 546.788 129.512C546.729 122.751 546.667 115.906 546.66 109.61C546.66 109.312 546.66 109.013 546.66 108.715C546.66 107.524 546.66 106.358 546.663 105.213C546.663 104.64 546.667 104.074 546.67 103.519C546.67 102.96 546.677 102.408 546.681 101.867C546.687 101.051 546.698 100.253 546.708 99.4719C546.722 98.4307 546.74 97.4241 546.76 96.4523C546.771 95.9664 546.781 95.4909 546.795 95.0258C546.809 94.5607 546.819 94.1026 546.837 93.6583C546.896 91.8743 546.969 90.2569 547.062 88.8443C547.087 88.4903 547.111 88.1501 547.135 87.8204C547.173 87.3275 547.215 86.8659 547.26 86.4355C547.291 86.1475 547.323 85.8733 547.354 85.6164C547.402 85.2277 547.455 84.8737 547.51 84.5509C547.604 84.0164 547.704 83.5756 547.815 83.2424C548.194 82.1144 548.839 80.1083 549.766 77.6266C550.051 76.863 550.367 76.0543 550.707 75.2144C550.877 74.7944 551.054 74.3641 551.238 73.9267C551.331 73.7081 551.422 73.4894 551.519 73.2673C551.71 72.8265 551.908 72.3753 552.112 71.9241C552.317 71.4694 552.529 71.0147 552.748 70.5531C552.966 70.0915 553.192 69.6264 553.424 69.1613C553.775 68.4637 554.139 67.7591 554.521 67.058C554.903 66.3569 555.299 65.6558 555.712 64.9616C555.986 64.5 556.27 64.0384 556.562 63.5837C556.853 63.129 557.148 62.6778 557.454 62.2301C558.065 61.3381 558.703 60.4669 559.373 59.6339C559.706 59.2174 560.05 58.8079 560.401 58.4087C564.246 54.0216 569.005 50.8493 574.752 50.8493C580.5 50.8493 584.929 50.8493 588.795 50.7001C596.178 50.412 601.512 49.579 610.044 47.1494C610.044 47.1494 612.206 46.9759 615.649 46.9689C617.096 46.9724 618.745 47.0071 620.532 47.0939C621.036 47.1182 621.553 47.146 622.077 47.1807C622.601 47.2119 623.139 47.2501 623.68 47.2917C624.222 47.3334 624.777 47.382 625.336 47.434C625.895 47.4861 626.464 47.5451 627.037 47.611C628.182 47.7395 629.355 47.8922 630.542 48.0761C631.136 48.1664 631.733 48.2636 632.33 48.3712C632.93 48.4753 633.531 48.5898 634.131 48.7078C635.474 48.9751 636.824 49.2874 638.164 49.6415C638.331 49.6866 638.497 49.7317 638.664 49.7768C638.817 49.8185 638.966 49.8567 639.119 49.8983C640.757 50.3599 642.378 50.8875 643.953 51.4984C644.734 51.8003 645.508 52.1231 646.265 52.4667C646.768 52.6958 647.268 52.9318 647.758 53.1817C648.493 53.5531 649.215 53.9453 649.916 54.3618C650.617 54.7783 651.298 55.2156 651.957 55.6807C652.617 56.1423 653.252 56.6317 653.863 57.1419C654.321 57.5272 654.762 57.9263 655.192 58.3393C658.184 61.234 660.395 64.8506 661.367 69.3661C662.116 72.8577 662.8 76.3841 663.418 79.9C663.623 81.0731 663.82 82.2428 664.011 83.409C664.771 88.0772 665.414 92.7004 665.934 97.1638C666.07 98.33 666.198 99.4823 666.319 100.624C666.399 101.384 666.476 102.141 666.548 102.891C666.656 104.015 666.757 105.126 666.85 106.223C666.882 106.587 666.913 106.951 666.941 107.312C667.055 108.76 667.159 110.176 667.246 111.561C667.333 112.946 667.406 114.296 667.465 115.608C667.493 116.264 667.52 116.909 667.541 117.548C667.562 118.183 667.579 118.811 667.597 119.426C667.611 120.04 667.621 120.647 667.628 121.241C667.635 121.685 667.638 122.122 667.638 122.553C667.638 122.987 667.638 123.417 667.638 123.837C667.638 124.118 667.635 124.392 667.631 124.667C667.624 125.215 667.614 125.749 667.6 126.27C667.555 127.835 667.482 129.286 667.371 130.605C667.343 130.935 667.316 131.258 667.284 131.57C667.26 131.806 667.236 132.035 667.211 132.261C667.135 132.937 667.045 133.569 666.948 134.156C666.861 134.676 666.753 135.242 666.628 135.853C666.587 136.058 666.545 136.266 666.5 136.478C666.274 137.547 666.004 138.744 665.709 140.07C663.866 148.296 660.943 161.54 660.745 180.651C660.738 181.262 660.735 181.879 660.735 182.504C660.735 183.139 660.735 183.778 660.742 184.423C660.749 185.066 660.756 185.711 660.766 186.364C660.79 187.669 660.825 189.001 660.877 190.359C660.929 191.716 660.992 193.097 661.072 194.503C661.19 196.613 661.342 198.779 661.533 201.004C661.658 202.486 661.8 203.995 661.964 205.529C662.123 207.064 662.3 208.622 662.498 210.208C662.595 210.999 662.699 211.801 662.807 212.606C663.022 214.217 663.255 215.855 663.508 217.521C664.015 220.85 664.605 224.282 665.278 227.823C665.403 228.485 665.535 229.155 665.667 229.825C666.066 231.838 666.493 233.886 666.951 235.969C667.305 237.586 667.635 239.158 667.937 240.685C668.843 245.267 669.509 249.439 669.981 253.25C669.985 253.281 669.988 253.309 669.992 253.34C669.992 253.35 669.992 253.361 669.992 253.368C670.29 255.822 670.415 258.4 670.398 261.073C670.255 282.831 660.658 310.528 658.007 322.562C657.288 325.817 656.264 343.23 656.261 359.97C656.254 374.742 657.042 388.993 659.53 392.533C660.842 394.401 662.456 396.077 664.303 397.573C672.442 404.178 685.058 407.222 695.925 407.201C695.943 407.201 695.964 407.201 695.981 407.201C696.036 407.201 696.092 407.201 696.148 407.201C696.186 407.201 696.227 407.201 696.266 407.201C696.384 407.201 696.502 407.201 696.616 407.201C704.033 407.187 710.635 405.74 714.442 403.022C716.323 401.679 722.498 345.23 722.776 343.286C723.227 340.141 724.723 335.095 726.746 328.459C731.248 313.708 738.363 291.068 742.479 263.808C743.802 255.041 744.819 245.794 745.332 236.18C745.332 236.146 745.336 236.111 745.339 236.076C745.339 236.076 745.339 236.069 745.339 236.066C745.468 233.643 745.575 231.144 745.655 228.558C747.512 169.322 738.224 160.065 745.655 124.896C753.086 89.7259 738.224 32.3395 706.647 17.5295C675.069 2.71958 652.776 6.42293 632.344 4.57299C611.911 2.72305 595.9 1.26878 585.904 0.869633C585.148 0.838396 584.391 0.831456 583.631 0.838397C560.866 0.737744 536.827 17.7794 533.196 28.6361C529.483 39.7427 509.047 82.3192 512.764 110.086C516.478 137.852 513.111 202.291 518.338 224.855C522.846 244.326 518.938 252.215 518.56 268.643C518.518 269.059 518.501 269.639 518.504 270.364C518.525 275.171 519.421 286.472 519.421 300.054L519.407 300.043Z" fill="#0C0B03"/>
<path d="M519.407 300.043C519.407 309.956 518.924 321.08 517.279 331.784C515.856 341.026 515.412 348.555 515.429 354.806C515.461 366.061 516.988 373.18 516.991 378.716C516.991 379.948 516.918 381.1 516.734 382.201C516.714 382.433 516.7 382.662 516.696 382.888C516.655 384.46 516.956 385.835 517.533 387.036C518.643 389.358 520.771 391.044 523.391 392.297C527.626 394.324 533.137 395.227 537.705 395.883C538.951 396.063 540.135 396.223 541.193 396.382L550.169 397.74C551.783 397.983 553.41 398.09 555.031 398.073C558.544 398.111 562.049 397.535 565.381 396.358L571.15 394.317C575.106 392.919 578.248 390.236 580.264 386.904C580.462 386.577 580.649 386.244 580.823 385.904C582.111 383.426 582.801 380.642 582.784 377.789C582.773 376.078 582.506 374.339 581.958 372.621C580.76 370.577 580.118 362.577 580.122 354.629C580.122 348.044 580.566 341.495 581.5 338.396C583.735 330.968 584.085 316.443 584.085 308.543C584.085 305.909 584.047 304.014 584.026 303.358C584.026 303.337 584.026 302.743 584.026 301.713C584.026 301.407 584.026 301.067 584.026 300.692C584.026 300.463 584.026 300.22 584.026 299.967C584.026 299.217 584.02 298.367 584.016 297.433C583.961 288.315 583.697 271.437 582.492 267.091C580.59 260.219 580.202 251.153 580.205 243.035C580.205 239.859 580.268 236.829 580.32 234.132C580.32 234.129 580.32 234.126 580.32 234.122C580.32 234.122 580.32 234.08 580.32 234.063C580.913 234.073 581.861 234.091 583.072 234.112C584.127 234.132 585.377 234.157 586.765 234.185C593.13 234.32 602.335 234.549 608.287 234.868C608.707 234.893 609.113 234.913 609.502 234.938C609.648 234.948 609.797 234.955 609.943 234.965C609.964 234.965 609.988 234.965 610.009 234.969C610.023 234.969 610.037 234.969 610.051 234.969V234.927C610.099 234.927 610.148 234.934 610.196 234.934C610.342 234.945 610.491 234.952 610.637 234.962C610.658 234.962 610.682 234.962 610.703 234.965C610.717 234.965 610.731 234.965 610.745 234.965L610.082 214.453C610.082 214.453 610.078 214.453 610.075 214.453V214.439L609.926 209.753L609.818 206.39V206.297C609.818 206.297 609.766 206.307 609.669 206.321C609.554 206.342 609.367 206.369 609.127 206.404V206.397V206.356V206.335C609.127 206.335 609.075 206.345 608.978 206.359C608.78 206.394 608.388 206.456 607.822 206.529C607.51 206.571 607.142 206.616 606.729 206.664C605.681 206.782 604.324 206.907 602.734 206.991C602.505 207.001 602.276 207.015 602.036 207.025C601.28 207.057 600.478 207.081 599.635 207.088C599.59 207.088 599.544 207.088 599.499 207.088C597.969 207.088 596.327 207.036 594.599 206.911C582.826 206.061 567.297 201.809 559.741 186.44C559.099 185.132 558.513 183.74 557.992 182.265C557.426 180.665 556.867 179.023 556.315 177.35C555.764 175.674 555.219 173.962 554.684 172.217C554.091 170.283 553.515 168.302 552.952 166.288C550.471 157.396 548.322 147.751 546.851 137.606C546.851 137.561 546.851 137.519 546.851 137.474C546.833 134.86 546.812 132.191 546.788 129.512C546.729 122.751 546.667 115.906 546.66 109.61C546.66 109.312 546.66 109.013 546.66 108.715C546.66 107.524 546.66 106.358 546.663 105.213C546.663 104.64 546.667 104.074 546.67 103.519C546.67 102.96 546.677 102.408 546.681 101.867C546.687 101.051 546.698 100.253 546.708 99.4719C546.722 98.4307 546.74 97.4241 546.76 96.4523C546.771 95.9664 546.781 95.4909 546.795 95.0258C546.809 94.5607 546.819 94.1026 546.837 93.6583C546.896 91.8743 546.969 90.2569 547.062 88.8443C547.087 88.4903 547.111 88.1501 547.135 87.8204C547.173 87.3275 547.215 86.8659 547.26 86.4355C547.291 86.1475 547.323 85.8733 547.354 85.6164C547.402 85.2277 547.455 84.8737 547.51 84.5509C547.604 84.0164 547.704 83.5756 547.815 83.2424C548.194 82.1144 548.839 80.1083 549.766 77.6266C550.051 76.863 550.367 76.0543 550.707 75.2144C550.877 74.7944 551.054 74.3641 551.238 73.9267C551.331 73.7081 551.422 73.4894 551.519 73.2673C551.71 72.8265 551.908 72.3753 552.112 71.9241C552.317 71.4694 552.529 71.0147 552.748 70.5531C552.966 70.0915 553.192 69.6264 553.424 69.1613C553.775 68.4637 554.139 67.7591 554.521 67.058C554.903 66.3569 555.299 65.6558 555.712 64.9616C555.986 64.5 556.27 64.0384 556.562 63.5837C556.853 63.129 557.148 62.6778 557.454 62.2301C558.065 61.3381 558.703 60.4669 559.373 59.6339C559.706 59.2174 560.05 58.8079 560.401 58.4087C564.246 54.0216 569.005 50.8493 574.752 50.8493C580.5 50.8493 584.929 50.8493 588.795 50.7001C596.178 50.412 601.512 49.579 610.044 47.1494C610.044 47.1494 612.206 46.9759 615.649 46.9689C617.096 46.9724 618.745 47.0071 620.532 47.0939C621.036 47.1182 621.553 47.146 622.077 47.1807C622.601 47.2119 623.139 47.2501 623.68 47.2917C624.222 47.3334 624.777 47.382 625.336 47.434C625.895 47.4861 626.464 47.5451 627.037 47.611C628.182 47.7395 629.355 47.8922 630.542 48.0761C631.136 48.1664 631.733 48.2636 632.33 48.3712C632.93 48.4753 633.531 48.5898 634.131 48.7078C635.474 48.9751 636.824 49.2874 638.164 49.6415C638.331 49.6866 638.497 49.7317 638.664 49.7768C638.817 49.8185 638.966 49.8567 639.119 49.8983C640.757 50.3599 642.378 50.8875 643.953 51.4984C644.734 51.8003 645.508 52.1231 646.265 52.4667C646.768 52.6958 647.268 52.9318 647.758 53.1817C648.493 53.5531 649.215 53.9453 649.916 54.3618C650.617 54.7783 651.298 55.2156 651.957 55.6807C652.617 56.1423 653.252 56.6317 653.863 57.1419C654.321 57.5272 654.762 57.9263 655.192 58.3393C658.184 61.234 660.395 64.8506 661.367 69.3661C662.116 72.8577 662.8 76.3841 663.418 79.9C663.623 81.0731 663.82 82.2428 664.011 83.409C664.771 88.0772 665.414 92.7004 665.934 97.1638C666.07 98.33 666.198 99.4823 666.319 100.624C666.399 101.384 666.476 102.141 666.548 102.891C666.656 104.015 666.757 105.126 666.85 106.223C666.882 106.587 666.913 106.951 666.941 107.312C667.055 108.76 667.159 110.176 667.246 111.561C667.333 112.946 667.406 114.296 667.465 115.608C667.493 116.264 667.52 116.909 667.541 117.548C667.562 118.183 667.579 118.811 667.597 119.426C667.611 120.04 667.621 120.647 667.628 121.241C667.635 121.685 667.638 122.122 667.638 122.553C667.638 122.987 667.638 123.417 667.638 123.837C667.638 124.118 667.635 124.392 667.631 124.667C667.624 125.215 667.614 125.749 667.6 126.27C667.555 127.835 667.482 129.286 667.371 130.605C667.343 130.935 667.316 131.258 667.284 131.57C667.26 131.806 667.236 132.035 667.211 132.261C667.135 132.937 667.045 133.569 666.948 134.156C666.861 134.676 666.753 135.242 666.628 135.853C666.587 136.058 666.545 136.266 666.5 136.478C666.274 137.547 666.004 138.744 665.709 140.07C663.866 148.296 660.943 161.54 660.745 180.651C660.738 181.262 660.735 181.879 660.735 182.504C660.735 183.139 660.735 183.778 660.742 184.423C660.749 185.066 660.756 185.711 660.766 186.364C660.79 187.669 660.825 189.001 660.877 190.359C660.929 191.716 660.992 193.097 661.072 194.503C661.19 196.613 661.342 198.779 661.533 201.004C661.658 202.486 661.8 203.995 661.964 205.529C662.123 207.064 662.3 208.622 662.498 210.208C662.595 210.999 662.699 211.801 662.807 212.606C663.022 214.217 663.255 215.855 663.508 217.521C664.015 220.85 664.605 224.282 665.278 227.823C665.403 228.485 665.535 229.155 665.667 229.825C666.066 231.838 666.493 233.886 666.951 235.969C667.305 237.586 667.635 239.158 667.937 240.685C668.843 245.267 669.509 249.439 669.981 253.25C669.985 253.281 669.988 253.309 669.992 253.34C669.992 253.35 669.992 253.361 669.992 253.368C670.29 255.822 670.415 258.4 670.398 261.073C670.255 282.831 660.658 310.528 658.007 322.562C657.288 325.817 656.264 343.23 656.261 359.97C656.254 374.742 657.042 388.993 659.53 392.533C660.842 394.401 662.456 396.077 664.303 397.573C672.442 404.178 685.058 407.222 695.925 407.201C695.943 407.201 695.964 407.201 695.981 407.201C696.036 407.201 696.092 407.201 696.148 407.201C696.186 407.201 696.227 407.201 696.266 407.201C696.384 407.201 696.502 407.201 696.616 407.201C704.033 407.187 710.635 405.74 714.442 403.022C716.323 401.679 722.498 345.23 722.776 343.286C723.227 340.141 724.723 335.095 726.746 328.459C731.248 313.708 738.363 291.068 742.479 263.808C743.802 255.041 744.819 245.794 745.332 236.18C745.332 236.146 745.336 236.111 745.339 236.076C745.339 236.076 745.339 236.069 745.339 236.066C745.468 233.643 745.575 231.144 745.655 228.558C747.512 169.322 738.224 160.065 745.655 124.896C753.086 89.7259 738.224 32.3395 706.647 17.5295C675.069 2.71958 652.776 6.42293 632.344 4.57299C611.911 2.72305 595.9 1.26878 585.904 0.869633C585.148 0.838396 584.391 0.831456 583.631 0.838397C560.866 0.737744 536.827 17.7794 533.196 28.6361C529.483 39.7427 509.047 82.3192 512.764 110.086C516.478 137.852 513.111 202.291 518.338 224.855C522.846 244.326 518.938 252.215 518.56 268.643C518.518 269.059 518.501 269.639 518.504 270.364C518.525 275.171 519.421 286.472 519.421 300.054L519.407 300.043Z" fill="#0C0B03"/>
<path d="M393.937 205.96V84.9086C393.937 64.5245 377.413 48 357.028 48H36.9086C16.5245 48 0 64.5245 0 84.9086V234.962C0 255.346 16.5245 271.871 36.9086 271.871H357.032C377.416 271.871 393.941 255.346 393.941 234.962V234.598L448.547 229.003L393.941 205.964L393.937 205.96Z" fill="#F6F6F6"/>
<path d="M83.2686 142.588H74.2913V113.497H83.6663C86.4883 113.497 88.9031 114.079 90.9107 115.244C92.9182 116.399 94.4571 118.061 95.5271 120.23C96.5972 122.389 97.1323 124.974 97.1323 127.986C97.1323 131.016 96.5925 133.625 95.5129 135.812C94.4334 137.99 92.8614 139.666 90.797 140.841C88.7326 142.006 86.2232 142.588 83.2686 142.588ZM77.8141 139.463H83.0413C85.4466 139.463 87.44 138.999 89.0215 138.071C90.6029 137.143 91.7819 135.822 92.5584 134.108C93.3349 132.394 93.7232 130.353 93.7232 127.986C93.7232 125.637 93.3396 123.615 92.5726 121.92C91.8055 120.216 90.6597 118.909 89.1351 118C87.6105 117.081 85.7118 116.622 83.4391 116.622H77.8141V139.463ZM111.45 143.042C109.481 143.042 107.753 142.574 106.266 141.636C104.789 140.699 103.633 139.387 102.8 137.702C101.976 136.016 101.564 134.046 101.564 131.792C101.564 129.52 101.976 127.536 102.8 125.841C103.633 124.146 104.789 122.829 106.266 121.892C107.753 120.954 109.481 120.486 111.45 120.486C113.42 120.486 115.144 120.954 116.621 121.892C118.108 122.829 119.263 124.146 120.087 125.841C120.92 127.536 121.337 129.52 121.337 131.792C121.337 134.046 120.92 136.016 120.087 137.702C119.263 139.387 118.108 140.699 116.621 141.636C115.144 142.574 113.42 143.042 111.45 143.042ZM111.45 140.031C112.947 140.031 114.178 139.648 115.144 138.881C116.11 138.113 116.824 137.105 117.289 135.855C117.753 134.605 117.985 133.251 117.985 131.792C117.985 130.334 117.753 128.975 117.289 127.716C116.824 126.456 116.11 125.438 115.144 124.662C114.178 123.885 112.947 123.497 111.45 123.497C109.954 123.497 108.723 123.885 107.757 124.662C106.791 125.438 106.076 126.456 105.612 127.716C105.148 128.975 104.916 130.334 104.916 131.792C104.916 133.251 105.148 134.605 105.612 135.855C106.076 137.105 106.791 138.113 107.757 138.881C108.723 139.648 109.954 140.031 111.45 140.031ZM139.863 150.77C139.295 150.77 138.788 150.722 138.343 150.628C137.898 150.542 137.59 150.457 137.42 150.372L138.272 147.417C139.087 147.626 139.806 147.702 140.431 147.645C141.056 147.588 141.61 147.309 142.093 146.807C142.586 146.314 143.035 145.514 143.443 144.406L144.068 142.702L135.999 120.77H139.636L145.659 138.156H145.886L151.909 120.77H155.545L146.284 145.77C145.867 146.897 145.351 147.829 144.735 148.568C144.12 149.316 143.405 149.87 142.59 150.23C141.785 150.59 140.876 150.77 139.863 150.77ZM168.052 143.042C166.082 143.042 164.354 142.574 162.867 141.636C161.39 140.699 160.235 139.387 159.401 137.702C158.578 136.016 158.166 134.046 158.166 131.792C158.166 129.52 158.578 127.536 159.401 125.841C160.235 124.146 161.39 122.829 162.867 121.892C164.354 120.954 166.082 120.486 168.052 120.486C170.022 120.486 171.745 120.954 173.222 121.892C174.709 122.829 175.864 124.146 176.688 125.841C177.522 127.536 177.938 129.52 177.938 131.792C177.938 134.046 177.522 136.016 176.688 137.702C175.864 139.387 174.709 140.699 173.222 141.636C171.745 142.574 170.022 143.042 168.052 143.042ZM168.052 140.031C169.548 140.031 170.779 139.648 171.745 138.881C172.711 138.113 173.426 137.105 173.89 135.855C174.354 134.605 174.586 133.251 174.586 131.792C174.586 130.334 174.354 128.975 173.89 127.716C173.426 126.456 172.711 125.438 171.745 124.662C170.779 123.885 169.548 123.497 168.052 123.497C166.556 123.497 165.325 123.885 164.359 124.662C163.393 125.438 162.678 126.456 162.214 127.716C161.75 128.975 161.518 130.334 161.518 131.792C161.518 133.251 161.75 134.605 162.214 135.855C162.678 137.105 163.393 138.113 164.359 138.881C165.325 139.648 166.556 140.031 168.052 140.031ZM196.806 133.667V120.77H200.158V142.588H196.806V138.895H196.578C196.067 140.003 195.271 140.945 194.192 141.721C193.112 142.488 191.749 142.872 190.101 142.872C188.737 142.872 187.525 142.574 186.465 141.977C185.404 141.371 184.571 140.462 183.965 139.25C183.359 138.028 183.056 136.489 183.056 134.633V120.77H186.408V134.406C186.408 135.997 186.853 137.266 187.743 138.213C188.643 139.16 189.789 139.633 191.181 139.633C192.014 139.633 192.861 139.42 193.723 138.994C194.594 138.568 195.324 137.915 195.911 137.034C196.507 136.153 196.806 135.031 196.806 133.667ZM220.9 129.463V142.588H217.548V113.497H220.9V124.179H221.184C221.695 123.052 222.463 122.157 223.485 121.494C224.517 120.822 225.891 120.486 227.605 120.486C229.091 120.486 230.393 120.784 231.511 121.381C232.628 121.968 233.495 122.872 234.11 124.094C234.735 125.306 235.048 126.849 235.048 128.724V142.588H231.695V128.952C231.695 127.219 231.246 125.879 230.346 124.932C229.456 123.975 228.22 123.497 226.639 123.497C225.54 123.497 224.555 123.729 223.684 124.193C222.822 124.657 222.141 125.334 221.639 126.224C221.146 127.114 220.9 128.194 220.9 129.463ZM247.601 143.099C246.218 143.099 244.964 142.839 243.837 142.318C242.71 141.788 241.815 141.025 241.152 140.031C240.489 139.027 240.158 137.815 240.158 136.395C240.158 135.145 240.404 134.131 240.896 133.355C241.389 132.569 242.047 131.953 242.871 131.508C243.695 131.063 244.604 130.732 245.598 130.514C246.602 130.287 247.61 130.107 248.624 129.974C249.949 129.804 251.024 129.676 251.848 129.591C252.681 129.496 253.288 129.34 253.666 129.122C254.055 128.904 254.249 128.525 254.249 127.986V127.872C254.249 126.47 253.865 125.381 253.098 124.605C252.341 123.828 251.19 123.44 249.646 123.44C248.046 123.44 246.791 123.791 245.882 124.491C244.973 125.192 244.334 125.94 243.965 126.736L240.783 125.599C241.351 124.273 242.109 123.241 243.056 122.503C244.012 121.755 245.054 121.234 246.181 120.94C247.317 120.637 248.434 120.486 249.533 120.486C250.234 120.486 251.039 120.571 251.948 120.741C252.866 120.902 253.752 121.238 254.604 121.75C255.466 122.261 256.181 123.033 256.749 124.065C257.317 125.097 257.601 126.48 257.601 128.213V142.588H254.249V139.633H254.078C253.851 140.107 253.472 140.613 252.942 141.153C252.412 141.693 251.706 142.152 250.825 142.531C249.945 142.91 248.87 143.099 247.601 143.099ZM248.112 140.088C249.438 140.088 250.556 139.827 251.465 139.307C252.383 138.786 253.074 138.113 253.539 137.29C254.012 136.466 254.249 135.599 254.249 134.69V131.622C254.107 131.792 253.794 131.949 253.311 132.091C252.838 132.223 252.289 132.342 251.664 132.446C251.048 132.541 250.447 132.626 249.86 132.702C249.282 132.768 248.813 132.825 248.453 132.872C247.582 132.986 246.768 133.17 246.01 133.426C245.262 133.672 244.656 134.046 244.192 134.548C243.737 135.041 243.51 135.713 243.51 136.565C243.51 137.73 243.941 138.611 244.803 139.207C245.674 139.794 246.777 140.088 248.112 140.088ZM280.779 120.77L272.711 142.588H269.302L261.234 120.77H264.87L270.893 138.156H271.12L277.143 120.77H280.779ZM293.57 143.042C291.468 143.042 289.655 142.578 288.13 141.65C286.615 140.713 285.445 139.406 284.622 137.73C283.807 136.044 283.4 134.084 283.4 131.849C283.4 129.614 283.807 127.645 284.622 125.94C285.445 124.226 286.591 122.891 288.059 121.934C289.536 120.969 291.26 120.486 293.23 120.486C294.366 120.486 295.488 120.675 296.596 121.054C297.704 121.433 298.713 122.048 299.622 122.9C300.531 123.743 301.255 124.861 301.795 126.253C302.335 127.645 302.605 129.359 302.605 131.395V132.815H285.786V129.917H299.195C299.195 128.686 298.949 127.588 298.457 126.622C297.974 125.656 297.283 124.894 296.383 124.335C295.493 123.776 294.442 123.497 293.23 123.497C291.894 123.497 290.739 123.828 289.764 124.491C288.798 125.145 288.054 125.997 287.534 127.048C287.013 128.099 286.752 129.226 286.752 130.429V132.361C286.752 134.008 287.036 135.405 287.605 136.551C288.182 137.687 288.982 138.554 290.005 139.15C291.028 139.738 292.216 140.031 293.57 140.031C294.451 140.031 295.247 139.908 295.957 139.662C296.677 139.406 297.297 139.027 297.818 138.525C298.338 138.014 298.741 137.38 299.025 136.622L302.264 137.531C301.923 138.63 301.35 139.595 300.545 140.429C299.74 141.253 298.746 141.897 297.562 142.361C296.378 142.815 295.048 143.042 293.57 143.042ZM80.2573 191.099C78.8747 191.099 77.6199 190.839 76.493 190.318C75.3662 189.788 74.4713 189.025 73.8084 188.031C73.1455 187.027 72.8141 185.815 72.8141 184.395C72.8141 183.145 73.0603 182.131 73.5527 181.355C74.0451 180.569 74.7033 179.953 75.5271 179.508C76.351 179.063 77.2601 178.732 78.2544 178.514C79.2582 178.287 80.2667 178.107 81.28 177.974C82.6057 177.804 83.6805 177.676 84.5044 177.591C85.3377 177.496 85.9438 177.34 86.3226 177.122C86.7109 176.904 86.905 176.525 86.905 175.986V175.872C86.905 174.47 86.5215 173.381 85.7544 172.605C84.9968 171.828 83.8463 171.44 82.3027 171.44C80.7023 171.44 79.4476 171.791 78.5385 172.491C77.6294 173.192 76.9902 173.94 76.6209 174.736L73.4391 173.599C74.0073 172.273 74.7648 171.241 75.7118 170.503C76.6682 169.755 77.7099 169.234 78.8368 168.94C79.9732 168.637 81.0906 168.486 82.1891 168.486C82.8898 168.486 83.6948 168.571 84.6038 168.741C85.5224 168.902 86.4078 169.238 87.2601 169.75C88.1218 170.261 88.8368 171.033 89.405 172.065C89.9732 173.097 90.2573 174.48 90.2573 176.213V190.588H86.905V187.633H86.7345C86.5073 188.107 86.1285 188.613 85.5982 189.153C85.0679 189.693 84.3624 190.152 83.4817 190.531C82.601 190.91 81.5262 191.099 80.2573 191.099ZM80.7686 188.088C82.0944 188.088 83.2118 187.827 84.1209 187.307C85.0394 186.786 85.7307 186.113 86.1948 185.29C86.6682 184.466 86.905 183.599 86.905 182.69V179.622C86.7629 179.792 86.4504 179.949 85.9675 180.091C85.494 180.223 84.9448 180.342 84.3198 180.446C83.7042 180.541 83.1029 180.626 82.5158 180.702C81.9381 180.768 81.4694 180.825 81.1095 180.872C80.2383 180.986 79.4239 181.17 78.6663 181.426C77.9182 181.672 77.3122 182.046 76.8482 182.548C76.3936 183.041 76.1663 183.713 76.1663 184.565C76.1663 185.73 76.5972 186.611 77.459 187.207C78.3302 187.794 79.4334 188.088 80.7686 188.088ZM122.512 198.77V187.236H122.228C121.982 187.633 121.632 188.135 121.177 188.741C120.722 189.338 120.074 189.873 119.231 190.346C118.388 190.81 117.266 191.042 115.864 191.042C114.046 191.042 112.441 190.583 111.049 189.665C109.657 188.737 108.568 187.43 107.782 185.744C106.996 184.049 106.603 182.046 106.603 179.736C106.603 177.444 106.996 175.455 107.782 173.77C108.568 172.084 109.662 170.782 111.063 169.863C112.465 168.945 114.084 168.486 115.921 168.486C117.342 168.486 118.464 168.722 119.288 169.196C120.121 169.66 120.756 170.19 121.191 170.787C121.636 171.374 121.982 171.857 122.228 172.236H122.626V168.77H125.864V198.77H122.512ZM116.319 188.031C117.664 188.031 118.8 187.681 119.728 186.98C120.656 186.27 121.362 185.29 121.845 184.04C122.328 182.78 122.569 181.327 122.569 179.679C122.569 178.05 122.332 176.625 121.859 175.403C121.385 174.172 120.685 173.216 119.757 172.534C118.829 171.843 117.683 171.497 116.319 171.497C114.899 171.497 113.715 171.862 112.768 172.591C111.83 173.31 111.125 174.291 110.651 175.531C110.187 176.762 109.955 178.145 109.955 179.679C109.955 181.232 110.192 182.643 110.666 183.912C111.149 185.171 111.859 186.175 112.796 186.923C113.743 187.662 114.918 188.031 116.319 188.031ZM145.751 181.667V168.77H149.103V190.588H145.751V186.895H145.524C145.012 188.003 144.217 188.945 143.137 189.721C142.058 190.488 140.694 190.872 139.046 190.872C137.683 190.872 136.471 190.574 135.41 189.977C134.349 189.371 133.516 188.462 132.91 187.25C132.304 186.028 132.001 184.489 132.001 182.633V168.77H135.353V182.406C135.353 183.997 135.798 185.266 136.688 186.213C137.588 187.16 138.734 187.633 140.126 187.633C140.959 187.633 141.807 187.42 142.668 186.994C143.54 186.568 144.269 185.915 144.856 185.034C145.453 184.153 145.751 183.031 145.751 181.667ZM164.391 191.042C162.289 191.042 160.475 190.578 158.95 189.65C157.435 188.713 156.266 187.406 155.442 185.73C154.628 184.044 154.22 182.084 154.22 179.849C154.22 177.614 154.628 175.645 155.442 173.94C156.266 172.226 157.412 170.891 158.879 169.934C160.357 168.969 162.08 168.486 164.05 168.486C165.186 168.486 166.308 168.675 167.416 169.054C168.524 169.433 169.533 170.048 170.442 170.9C171.351 171.743 172.075 172.861 172.615 174.253C173.155 175.645 173.425 177.359 173.425 179.395V180.815H156.607V177.917H170.016C170.016 176.686 169.77 175.588 169.277 174.622C168.794 173.656 168.103 172.894 167.203 172.335C166.313 171.776 165.262 171.497 164.05 171.497C162.715 171.497 161.559 171.828 160.584 172.491C159.618 173.145 158.875 173.997 158.354 175.048C157.833 176.099 157.573 177.226 157.573 178.429V180.361C157.573 182.008 157.857 183.405 158.425 184.551C159.003 185.687 159.803 186.554 160.825 187.15C161.848 187.738 163.037 188.031 164.391 188.031C165.271 188.031 166.067 187.908 166.777 187.662C167.497 187.406 168.117 187.027 168.638 186.525C169.159 186.014 169.561 185.38 169.845 184.622L173.084 185.531C172.743 186.63 172.17 187.595 171.365 188.429C170.56 189.253 169.566 189.897 168.382 190.361C167.199 190.815 165.868 191.042 164.391 191.042ZM193.979 173.656L190.967 174.508C190.778 174.006 190.499 173.519 190.129 173.045C189.77 172.562 189.277 172.165 188.652 171.852C188.027 171.54 187.227 171.383 186.252 171.383C184.916 171.383 183.804 171.691 182.914 172.307C182.033 172.913 181.592 173.684 181.592 174.622C181.592 175.455 181.896 176.113 182.502 176.596C183.108 177.079 184.055 177.482 185.342 177.804L188.581 178.599C190.532 179.073 191.985 179.797 192.942 180.773C193.898 181.738 194.377 182.984 194.377 184.508C194.377 185.758 194.017 186.876 193.297 187.861C192.587 188.845 191.592 189.622 190.314 190.19C189.036 190.758 187.549 191.042 185.854 191.042C183.628 191.042 181.787 190.559 180.328 189.594C178.87 188.628 177.947 187.217 177.558 185.361L180.74 184.565C181.043 185.739 181.616 186.62 182.459 187.207C183.311 187.794 184.424 188.088 185.797 188.088C187.36 188.088 188.6 187.756 189.519 187.094C190.447 186.421 190.911 185.616 190.911 184.679C190.911 183.921 190.646 183.287 190.115 182.775C189.585 182.255 188.771 181.866 187.672 181.611L184.036 180.758C182.038 180.285 180.57 179.551 179.632 178.557C178.704 177.553 178.24 176.298 178.24 174.792C178.24 173.561 178.586 172.472 179.277 171.525C179.978 170.578 180.93 169.835 182.132 169.295C183.344 168.756 184.717 168.486 186.252 168.486C188.411 168.486 190.106 168.959 191.337 169.906C192.577 170.853 193.458 172.103 193.979 173.656ZM208.911 168.77V171.611H197.605V168.77H208.911ZM200.9 163.542H204.252V184.338C204.252 185.285 204.39 185.995 204.664 186.469C204.948 186.933 205.308 187.245 205.744 187.406C206.189 187.558 206.658 187.633 207.15 187.633C207.519 187.633 207.822 187.614 208.059 187.577C208.296 187.529 208.485 187.491 208.627 187.463L209.309 190.474C209.082 190.559 208.765 190.645 208.357 190.73C207.95 190.825 207.434 190.872 206.809 190.872C205.862 190.872 204.934 190.668 204.025 190.261C203.125 189.854 202.377 189.234 201.781 188.4C201.194 187.567 200.9 186.516 200.9 185.247V163.542ZM213.954 190.588V168.77H217.306V190.588H213.954ZM215.659 165.133C215.005 165.133 214.442 164.911 213.968 164.466C213.504 164.021 213.272 163.486 213.272 162.861C213.272 162.236 213.504 161.701 213.968 161.256C214.442 160.81 215.005 160.588 215.659 160.588C216.312 160.588 216.871 160.81 217.335 161.256C217.808 161.701 218.045 162.236 218.045 162.861C218.045 163.486 217.808 164.021 217.335 164.466C216.871 164.911 216.312 165.133 215.659 165.133ZM232.31 191.042C230.34 191.042 228.612 190.574 227.125 189.636C225.648 188.699 224.493 187.387 223.659 185.702C222.835 184.016 222.423 182.046 222.423 179.792C222.423 177.52 222.835 175.536 223.659 173.841C224.493 172.146 225.648 170.829 227.125 169.892C228.612 168.954 230.34 168.486 232.31 168.486C234.28 168.486 236.003 168.954 237.48 169.892C238.967 170.829 240.122 172.146 240.946 173.841C241.78 175.536 242.196 177.52 242.196 179.792C242.196 182.046 241.78 184.016 240.946 185.702C240.122 187.387 238.967 188.699 237.48 189.636C236.003 190.574 234.28 191.042 232.31 191.042ZM232.31 188.031C233.806 188.031 235.037 187.648 236.003 186.881C236.969 186.113 237.684 185.105 238.148 183.855C238.612 182.605 238.844 181.251 238.844 179.792C238.844 178.334 238.612 176.975 238.148 175.716C237.684 174.456 236.969 173.438 236.003 172.662C235.037 171.885 233.806 171.497 232.31 171.497C230.814 171.497 229.583 171.885 228.617 172.662C227.651 173.438 226.936 174.456 226.472 175.716C226.008 176.975 225.776 178.334 225.776 179.792C225.776 181.251 226.008 182.605 226.472 183.855C226.936 185.105 227.651 186.113 228.617 186.881C229.583 187.648 230.814 188.031 232.31 188.031ZM250.666 177.463V190.588H247.313V168.77H250.552V172.179H250.836C251.347 171.071 252.124 170.181 253.166 169.508C254.207 168.827 255.552 168.486 257.2 168.486C258.677 168.486 259.97 168.789 261.078 169.395C262.186 169.991 263.047 170.9 263.663 172.122C264.278 173.334 264.586 174.868 264.586 176.724V190.588H261.234V176.952C261.234 175.238 260.789 173.902 259.899 172.946C259.008 171.98 257.787 171.497 256.234 171.497C255.164 171.497 254.207 171.729 253.364 172.193C252.531 172.657 251.873 173.334 251.39 174.224C250.907 175.114 250.666 176.194 250.666 177.463ZM275.087 182.406V182.236C275.106 180.427 275.295 178.988 275.655 177.917C276.015 176.847 276.526 175.981 277.189 175.318C277.852 174.655 278.647 174.044 279.575 173.486C280.134 173.145 280.636 172.742 281.081 172.278C281.526 171.805 281.877 171.26 282.132 170.645C282.397 170.029 282.53 169.347 282.53 168.599C282.53 167.671 282.312 166.866 281.877 166.184C281.441 165.503 280.859 164.977 280.129 164.608C279.4 164.238 278.591 164.054 277.7 164.054C276.924 164.054 276.176 164.215 275.456 164.537C274.736 164.859 274.135 165.365 273.652 166.057C273.169 166.748 272.89 167.652 272.814 168.77H269.235C269.31 167.16 269.727 165.782 270.485 164.636C271.252 163.49 272.26 162.614 273.51 162.008C274.77 161.402 276.166 161.099 277.7 161.099C279.367 161.099 280.816 161.431 282.047 162.094C283.288 162.756 284.244 163.666 284.916 164.821C285.598 165.976 285.939 167.292 285.939 168.77C285.939 169.811 285.778 170.754 285.456 171.596C285.144 172.439 284.689 173.192 284.092 173.855C283.505 174.518 282.795 175.105 281.962 175.616C281.128 176.137 280.461 176.686 279.959 177.264C279.457 177.832 279.092 178.509 278.865 179.295C278.638 180.081 278.515 181.061 278.496 182.236V182.406H275.087ZM276.905 190.815C276.204 190.815 275.603 190.564 275.101 190.062C274.599 189.56 274.348 188.959 274.348 188.258C274.348 187.558 274.599 186.956 275.101 186.454C275.603 185.952 276.204 185.702 276.905 185.702C277.606 185.702 278.207 185.952 278.709 186.454C279.211 186.956 279.462 187.558 279.462 188.258C279.462 188.722 279.343 189.148 279.107 189.537C278.879 189.925 278.572 190.238 278.183 190.474C277.805 190.702 277.378 190.815 276.905 190.815Z" fill="black"/>
</svg>
