<svg width="580" height="457" viewBox="0 0 580 457" fill="none" xmlns="http://www.w3.org/2000/svg">
<path d="M133.013 399.222C133.824 391.11 135.349 376.583 143.218 364.409C143.18 364.236 143.158 364.143 143.158 364.143C147.77 358.606 161.605 316.144 173.595 270.912C185.108 227.486 170.265 193.425 169.063 190.775L153.303 191.527C153.303 191.527 126.554 193.374 114.564 219.219C102.574 245.065 81.3582 334.605 78.5916 350.297C75.8626 365.778 70.4399 390.241 72.9501 442.292H132.114C132.171 428.968 132.366 405.695 133.011 399.22L133.013 399.222Z" fill="#EAEAEA"/>
<path d="M561.911 171.221C547.154 187.835 542.541 197.99 527.784 202.606C513.025 207.221 520.406 200.759 522.251 191.528C524.096 182.298 526.862 173.989 523.172 169.374C519.482 164.759 515.794 165.681 513.949 172.143C512.104 178.605 500.113 194.297 496.423 198.913C492.733 203.528 486.278 210.912 484.433 226.605C482.588 242.297 478.9 253.374 475.21 257.99C473.449 260.192 470.848 264.92 468.607 269.259C473.809 272.767 489.807 284.257 500.31 299.419C504.99 291.361 523.422 260.818 537.007 255.221C552.688 248.759 576.668 233.066 578.513 200.759C580.358 168.452 576.668 154.606 561.911 171.221Z" fill="#FFBEA8"/>
<path d="M468.609 269.262C467.526 268.532 466.91 268.145 466.91 268.145L430.016 312.454C430.016 312.454 412.49 285.684 408.802 279.222C405.112 272.76 374.675 228.454 358.073 210.914C342.563 194.53 327.859 194.258 325.992 194.293C335.569 196.96 345.933 202.628 349.773 214.607C355.581 232.728 361.764 281.069 361.764 289.377C361.764 293.9 362.583 316.74 363.182 338.556C374.649 351.155 394.892 369.609 409.726 384.455C430.94 405.685 446.62 393.686 455.843 387.224C465.067 380.762 506.572 310.607 506.572 310.607C504.926 306.715 502.769 302.969 500.312 299.422C489.809 284.26 473.811 272.769 468.609 269.262Z" fill="#EAEAEA"/>
<path d="M208.125 140.683C209.072 146.744 212.224 158.799 222.501 163.983L221.56 135.223C216.407 138.768 211.927 140.287 208.125 140.685V140.683Z" fill="#423E34"/>
<path d="M223.867 182.759L224.222 188.115C233.212 199.213 254.078 222.435 272.289 223.837C286.789 224.954 288.979 213.076 288.446 203.512C286.723 200.526 285.662 197.572 285.662 194.761V193.839L285.2 176.762L285.443 188.631C263.576 183.699 245.098 151.337 245.098 151.337C253.413 164.59 285.2 176.762 285.2 176.762C285.2 176.762 330.396 190.608 336.853 145.377C339.675 125.615 341.79 107.616 343.049 92.6884C343.034 92.7127 343.02 92.7371 343.005 92.7614C343.005 92.7614 339.162 58.2691 337.777 53.0677C335.954 46.2321 336.855 39.2217 324.863 44.7592C312.873 50.2968 293.502 52.1433 283.357 52.1433C273.212 52.1433 241.852 51.2212 241.852 51.2212C241.852 51.2212 236.319 49.3746 234.473 57.6831C232.628 65.9916 231.707 78.9132 229.862 84.4529C229.36 85.9589 223.975 114.018 221.1 110.761C220.959 110.601 220.811 110.433 220.66 110.263C220.64 110.298 220.64 110.298 220.64 110.298C220.64 110.298 220.154 109.723 219.346 108.806C215.395 104.493 209.097 98.2724 202.07 95.0414C196.888 93.4668 189.481 93.0732 183.747 103.836C176.368 117.682 190.203 135.222 193.892 137.068C196.294 138.269 201.038 141.425 208.127 140.684C211.93 140.286 216.409 138.769 221.562 135.222L222.503 163.982L223.042 180.468C223.993 181.103 223.867 182.759 223.867 182.759ZM315.633 81.0008C316.981 79.9128 320.026 77.9357 322.236 80.1472C324.136 82.049 323.559 83.9487 322.927 85.0434C322.653 85.5188 321.975 85.5852 321.628 85.1584C319.595 82.6505 317.102 81.9141 315.812 81.6974C315.474 81.6399 315.366 81.2175 315.633 81.0008ZM313.485 93.2811C315.9 93.2811 317.86 95.2404 317.86 97.6598C317.86 100.079 315.903 102.038 313.485 102.038C311.068 102.038 309.11 100.079 309.11 97.6598C309.11 95.2404 311.068 93.2811 313.485 93.2811ZM299.632 110.794L307.039 121.057C308 122.388 307.245 124.268 305.629 124.562L293.071 126.847L291.467 110.794L290.155 97.6598L299.632 110.794ZM279.884 138.822L297.093 142.513C298.039 142.716 298.494 143.784 297.988 144.609C296.287 147.382 292.218 152.345 285.779 150.198C279.307 148.039 278.421 142.683 278.397 140.045C278.39 139.251 279.108 138.656 279.881 138.822H279.884ZM272.656 100.579C272.656 102.996 270.698 104.958 268.28 104.958C265.863 104.958 263.905 102.998 263.905 100.579C263.905 98.1596 265.863 96.2002 268.28 96.2002C270.698 96.2002 272.656 98.1596 272.656 100.579ZM259.532 80.1472C262.557 78.1281 265.582 80.2975 267.162 81.8279C267.657 82.3078 267.454 83.1282 266.789 83.3118C264.212 84.0172 260.48 86.0628 258.867 86.9828C258.414 87.2416 257.833 87.058 257.629 86.5781C257.026 85.1561 256.357 82.2658 259.534 80.145L259.532 80.1472Z" fill="#FFBEA8"/>
<path d="M332.244 290.296C328.553 278.297 322.097 243.219 315.642 233.066C311.896 227.177 295.149 215.111 288.449 203.51C288.981 213.074 286.792 224.952 272.291 223.835C254.081 222.433 233.214 199.21 224.225 188.113L224.329 189.681C224.329 208.143 235.397 234.912 236.319 247.836C237.24 260.76 242.776 283.837 243.697 289.374C244.619 294.912 245.542 324.45 245.542 329.066C245.542 331.423 245.463 349.21 245.383 366.039L245.542 367.835L245.312 381.013C245.268 390.454 245.235 397.374 245.235 397.374C245.182 397.294 245.114 397.172 245.034 397.022L244.245 442.291H337.454L337.706 365.139C337.655 365.389 337.627 365.526 337.627 365.526C337.627 365.526 335.936 302.296 332.246 290.294L332.244 290.296Z" fill="#8BD3E2"/>
<path d="M330.608 266.575L330.376 265.697C330.383 265.899 330.392 266.098 330.401 266.299C330.401 266.299 330.476 266.396 330.611 266.575H330.608Z" fill="#8BD3E2"/>
<path d="M219.343 108.803C219.816 109.319 220.256 109.807 220.658 110.261C220.811 110.431 220.959 110.599 221.098 110.758C223.973 114.016 229.358 85.9566 229.86 84.4506C231.705 78.9131 232.626 65.9893 234.471 57.6808C236.316 49.3723 241.85 51.2189 241.85 51.2189C241.85 51.2189 273.21 52.1411 283.355 52.1411C293.5 52.1411 312.871 50.2945 324.861 44.757C336.851 39.2195 335.952 46.2276 337.775 53.0655C339.16 58.2668 343.003 92.7591 343.003 92.7591C343.018 92.7348 343.032 92.7105 343.047 92.6861C352.215 77.8936 348.834 48.4413 344.229 41.9904C339.618 35.5285 339.618 33.6819 340.539 30.9132C341.46 28.1444 348.841 -4.16292 343.306 0.452414C337.77 5.06775 312.869 7.83651 306.412 7.83651C299.955 7.83651 277.818 3.22117 251.071 2.29899C224.322 1.37681 210.487 15.2228 207.72 25.3757C204.954 35.5285 206.799 31.8376 194.806 32.7598C182.816 33.6819 187.428 39.2217 194.806 41.0682C202.185 42.9148 200.342 46.6058 200.342 46.6058C181.895 53.9899 190.195 64.1449 190.195 73.3756C190.195 76.9272 187.234 89.6188 199.88 94.1457C200.614 94.4089 201.343 94.7118 202.063 95.0436C209.09 98.2723 215.388 104.495 219.339 108.808L219.343 108.803Z" fill="#423E34"/>
<path d="M173.597 270.914C161.607 316.145 147.772 358.608 143.16 364.145C143.16 364.145 143.183 364.238 143.22 364.41C143.861 367.31 149.566 393.739 148.696 410.298C148.411 415.73 148.035 427.975 147.655 442.294H244.245L245.034 397.025C242.4 392.003 226.174 349.215 226.174 343.837C226.174 338.459 227.095 291.222 226.174 288.453C225.252 285.684 217.872 273.683 213.26 265.376C208.648 257.068 203.115 227.529 203.115 218.299C203.115 211.903 210.871 202.953 215.229 194.486L215.845 188.322L168.988 190.609C168.988 190.609 169.017 190.671 169.067 190.781C170.27 193.431 185.112 227.492 173.6 270.918L173.597 270.914Z" fill="#F6F6F6"/>
<path d="M245.383 366.041C245.359 371.291 245.335 376.448 245.312 381.017L245.542 367.839L245.383 366.043V366.041Z" fill="#F6F6F6"/>
<path d="M349.769 214.604C345.931 202.625 335.567 196.957 325.988 194.29C318.965 192.335 312.369 191.99 309.072 191.959C311.061 193.54 312.975 195.517 314.718 197.987C325.701 213.558 329.417 240.034 330.374 265.694L330.606 266.572C332.454 269.049 346.077 287.917 346.077 305.987C346.077 324.057 338.561 361.006 337.702 365.139L337.45 442.291H363.538C363.346 426.246 362.831 389.852 363.602 379.834C364.022 374.365 363.677 356.817 363.176 338.551C362.577 316.737 361.757 293.894 361.757 289.372C361.757 281.063 355.574 232.723 349.767 214.602L349.769 214.604Z" fill="#F6F6F6"/>
<path d="M213.26 265.373C217.872 273.682 225.25 285.681 226.174 288.45C227.095 291.219 226.174 338.297 226.174 343.834C226.174 349.372 242.402 392 245.034 397.022C245.114 397.173 245.18 397.292 245.235 397.374C245.235 397.374 245.268 390.454 245.312 381.013C245.335 376.447 245.359 371.29 245.383 366.037C245.463 349.208 245.542 331.423 245.542 329.064C245.542 324.448 244.621 294.91 243.697 289.372C242.776 283.835 237.24 260.756 236.319 247.834C235.397 234.91 224.329 208.143 224.329 189.679L224.225 188.111L223.869 182.755C223.869 182.755 223.995 181.099 223.045 180.464C222.188 179.891 220.451 180.15 216.95 183.217C214.683 185.201 212.504 188.408 210.573 192.163C206.216 200.63 203.115 211.9 203.115 218.296C203.115 227.526 208.648 257.065 213.26 265.373Z" fill="#EAEAEA"/>
<path d="M288.449 203.51C295.149 215.111 311.896 227.177 315.642 233.066C322.099 243.219 328.556 278.297 332.244 290.296C335.934 302.296 337.624 365.528 337.624 365.528C337.624 365.528 337.653 365.391 337.704 365.141C338.561 361.01 346.079 324.269 346.079 305.989C346.079 287.709 332.456 269.051 330.609 266.574C330.474 266.395 330.399 266.298 330.399 266.298C330.392 266.096 330.383 265.897 330.374 265.696C329.415 240.036 325.701 213.561 314.718 197.99C312.975 195.52 311.061 193.54 309.072 191.961C298.432 183.505 285.662 186.453 285.662 186.453V194.761C285.662 197.572 286.721 200.526 288.447 203.512L288.449 203.51Z" fill="#EAEAEA"/>
<path d="M268.597 104.923C271.007 104.751 272.822 102.656 272.651 100.244C272.479 97.832 270.386 96.0156 267.976 96.1873C265.566 96.3589 263.751 98.4535 263.922 100.866C264.094 103.278 266.187 105.094 268.597 104.923Z" fill="black"/>
<path d="M313.485 102.037C315.902 102.037 317.86 100.076 317.86 97.658C317.86 95.2397 315.902 93.2793 313.485 93.2793C311.069 93.2793 309.11 95.2397 309.11 97.658C309.11 100.076 311.069 102.037 313.485 102.037Z" fill="black"/>
<path d="M258.863 86.9833C260.476 86.0611 264.208 84.0177 266.785 83.3123C267.45 83.1309 267.653 82.3083 267.158 81.8284C265.58 80.298 262.555 78.1286 259.528 80.1477C256.35 82.2685 257.02 85.1566 257.623 86.5808C257.826 87.0607 258.407 87.242 258.86 86.9855L258.863 86.9833Z" fill="black"/>
<path d="M315.812 81.6963C317.102 81.913 319.597 82.6516 321.628 85.1572C321.975 85.584 322.653 85.5199 322.927 85.0422C323.559 83.9475 324.134 82.0457 322.236 80.146C320.026 77.9345 316.981 79.9116 315.633 80.9996C315.366 81.2142 315.474 81.6388 315.812 81.6963Z" fill="black"/>
<path d="M293.069 126.845L305.627 124.561C307.242 124.267 307.998 122.387 307.037 121.056L299.63 110.792L290.152 97.6582L291.465 110.792L293.069 126.845Z" fill="#E0A696"/>
<path d="M285.779 150.197C292.216 152.344 296.287 147.381 297.988 144.608C298.494 143.783 298.037 142.713 297.093 142.512L279.884 138.821C279.108 138.655 278.39 139.25 278.399 140.044C278.421 142.684 279.307 148.038 285.782 150.197H285.779Z" fill="#332031"/>
<path d="M245.103 151.332C245.103 151.332 263.58 183.695 285.448 188.626L285.205 176.757C285.205 176.757 253.418 164.585 245.103 151.332Z" fill="#E0A696"/>
</svg>
