<svg width="350" height="506" viewBox="0 0 350 506" fill="none" xmlns="http://www.w3.org/2000/svg">
<path d="M306.182 289.576C309.858 287.811 311.414 268.983 311.515 259.255C311.493 259.275 311.457 258.845 311.417 258.23C310.888 261.742 308.376 264.07 305.041 265.671C300.958 267.632 295.647 268.507 291.238 269.142L302.094 283.988C305.046 288.026 307.47 292.425 309.299 297.083C310.283 299.587 311.237 302.201 311.718 304.02C310.498 299.388 308.581 294.523 306.182 289.576Z" fill="#8BD3E2"/>
<path d="M348.799 453.791L340.407 399.283C329.24 403.374 309.438 409.383 290.848 408.725C289.717 428.752 289.257 452.205 291.961 465.719C293.866 475.247 295.771 490.389 297.439 505.984H348.483L349.854 468.809C350.183 463.777 349.826 458.724 348.799 453.788V453.791Z" fill="#E8C285"/>
<path d="M206.624 198.413C191.125 190.947 185.066 180.741 185.066 180.741C190.726 185.146 199.11 188.721 206.624 191.327C215.81 194.509 223.691 196.237 223.691 196.237C223.691 196.237 263.216 203.422 273.994 172.881C274.816 170.551 275.628 168.135 276.42 165.645C276.949 163.985 277.467 162.29 277.973 160.562C278.226 159.7 278.477 158.827 278.725 157.949C279.466 155.313 280.179 152.606 280.852 149.838C281.3 147.991 281.733 146.119 282.145 144.222C283.172 139.475 284.076 134.57 284.807 129.538C284.812 128.893 284.817 128.245 284.819 127.595C284.829 126.294 284.84 124.981 284.85 123.663C284.855 123.005 284.86 122.343 284.867 121.682C284.875 120.746 284.883 119.805 284.893 118.866C284.898 118.242 284.903 117.614 284.908 116.989C284.913 116.364 284.918 115.739 284.923 115.115C284.933 113.867 284.943 112.625 284.951 111.39C284.956 110.773 284.959 110.158 284.964 109.546C284.971 108.322 284.979 107.107 284.984 105.911C284.984 105.612 284.984 105.314 284.986 105.015C284.986 104.42 284.991 103.828 284.991 103.242C284.994 101.774 284.994 100.337 284.991 98.9355C284.991 98.0956 284.986 97.2658 284.981 96.4537C284.979 95.9123 284.974 95.3759 284.969 94.8497C284.964 94.3235 284.959 93.7998 284.953 93.2887C284.941 92.2616 284.926 91.2673 284.908 90.3084C284.89 89.3496 284.867 88.4236 284.842 87.5382C284.829 87.0954 284.814 86.6628 284.799 86.2403C284.776 85.6053 284.751 84.9956 284.726 84.4111C284.69 83.6319 284.65 82.8957 284.604 82.2076C284.571 81.6915 284.533 81.2057 284.493 80.7478C284.468 80.4417 284.44 80.1507 284.409 79.8699C284.382 79.5916 284.351 79.326 284.318 79.0755C284.286 78.825 284.253 78.5872 284.22 78.3646C284.184 78.1419 284.149 77.9345 284.113 77.7422C284.04 77.3577 283.959 77.0313 283.871 76.7707C282.074 71.3819 273.989 45.3311 257.82 45.3311C255.798 45.3311 253.946 45.3311 252.226 45.3235C251.796 45.3235 251.373 45.3185 250.961 45.3159C250.546 45.3134 250.141 45.3109 249.742 45.3058C247.548 45.283 245.575 45.2426 243.728 45.1616C243.392 45.1464 243.06 45.1312 242.734 45.1135C240.604 45.0022 238.628 44.8327 236.657 44.5747C233.626 44.18 230.605 43.5753 227.046 42.6519C225.978 42.3761 224.862 42.07 223.683 41.7335C223.683 41.7335 223.673 41.7335 223.65 41.7335C223.628 41.7335 223.597 41.7285 223.554 41.7259C223.129 41.6956 221.669 41.602 219.504 41.5691C219.286 41.5666 219.064 41.564 218.833 41.5615C218.717 41.5615 218.601 41.5615 218.482 41.5615C217.89 41.559 217.255 41.5615 216.584 41.5691C216.45 41.5691 216.314 41.5741 216.177 41.5741C214.257 41.607 212.061 41.6956 209.7 41.8853C208.688 41.9663 207.646 42.065 206.581 42.1864C206.05 42.2471 205.511 42.3129 204.969 42.3837C204.79 42.4065 204.608 42.4318 204.425 42.4571C204.061 42.5077 203.697 42.5608 203.33 42.6165C203.148 42.6443 202.963 42.6721 202.778 42.7025C201.675 42.8771 200.56 43.0795 199.439 43.3072C198.505 43.4994 197.572 43.7094 196.641 43.9422C195.71 44.1749 194.781 44.4305 193.86 44.7087C193.676 44.7644 193.493 44.8201 193.309 44.8783C191.108 45.5689 188.957 46.4013 186.928 47.3981C186.759 47.4816 186.592 47.5651 186.425 47.6511C185.754 47.9926 185.102 48.3544 184.462 48.7339C184.143 48.9236 183.827 49.1184 183.518 49.3183C182.276 50.1178 181.104 50.9982 180.029 51.9672C179.761 52.21 179.495 52.458 179.24 52.711C178.853 53.0904 178.481 53.4851 178.124 53.8899C178.005 54.0265 177.886 54.1631 177.772 54.2998C177.54 54.5755 177.314 54.8589 177.097 55.1473C176.912 55.3927 176.733 55.6432 176.558 55.8962C176.492 55.9923 176.426 56.091 176.361 56.1871C176.257 56.344 176.153 56.5033 176.052 56.6653C175.834 57.0144 175.624 57.3736 175.427 57.7405C175.308 57.9606 175.192 58.1807 175.081 58.4059C174.916 58.7373 174.759 59.0763 174.612 59.4229C174.466 59.7695 174.327 60.1212 174.195 60.4779C173.869 61.3735 173.598 62.3121 173.388 63.2962C173.219 64.0831 173.054 64.8699 172.892 65.6592C172.095 69.5477 171.387 73.4666 170.762 77.3501C170.744 77.4589 170.727 77.5676 170.709 77.6764C170.221 80.725 169.785 83.7508 169.403 86.721C169.393 86.807 169.381 86.8955 169.37 86.9816C169.229 88.0872 169.095 89.1851 168.968 90.273C168.877 91.0624 168.789 91.8466 168.705 92.6284C168.589 93.7087 168.48 94.7763 168.376 95.8338C168.202 97.6529 168.047 99.4339 167.916 101.172C167.863 101.868 167.815 102.553 167.769 103.234C167.632 105.258 167.529 107.214 167.455 109.086C167.455 109.111 167.455 109.134 167.453 109.159C167.367 111.342 167.326 113.412 167.326 115.342C167.326 115.621 167.326 115.894 167.329 116.164C167.336 117.521 167.369 118.806 167.42 120.007C167.44 120.488 167.465 120.956 167.493 121.412C167.508 121.639 167.521 121.862 167.539 122.082C167.617 123.183 167.718 124.2 167.842 125.118C167.89 125.485 167.944 125.839 167.999 126.175C168.574 129.616 170.061 135.076 171.415 142.779C175.068 162.053 178.906 193.383 169.087 224.912C167.174 231.054 166.304 236.802 166.58 241.903C166.615 242.54 166.618 243.163 166.6 243.767C177.428 257.664 193.339 270.843 206.626 280.593C207.937 281.554 209.22 282.48 210.472 283.373C222.097 291.659 230.881 296.848 230.881 296.848C232.465 292.623 233.406 288.069 233.864 283.373C236.52 256.116 222.798 224.087 222.798 224.087L223.443 204.1C216.9 202.701 211.335 200.685 206.629 198.418L206.624 198.413ZM263.166 85.0032C264.825 83.6623 268.577 81.231 271.299 83.9532C273.64 86.2934 272.931 88.6336 272.152 89.9821C271.813 90.569 270.978 90.65 270.551 90.1238C268.048 87.0372 264.974 86.129 263.383 85.8633C262.966 85.7925 262.834 85.2713 263.163 85.0057L263.166 85.0032ZM260.522 100.122C263.5 100.122 265.911 102.536 265.911 105.511C265.911 108.486 263.497 110.9 260.522 110.9C257.547 110.9 255.133 108.486 255.133 105.511C255.133 102.536 257.547 100.122 260.522 100.122ZM243.455 121.68L252.58 134.314C253.764 135.954 252.833 138.266 250.842 138.628L235.369 141.441L233.393 121.68L231.777 105.511L243.455 121.68ZM219.124 156.183L240.325 160.727C241.489 160.977 242.051 162.293 241.428 163.307C239.334 166.72 234.319 172.83 226.388 170.186C218.413 167.527 217.32 160.937 217.293 157.686C217.285 156.709 218.168 155.976 219.124 156.181V156.183ZM204.83 103.715C207.808 103.715 210.219 106.128 210.219 109.103C210.219 112.079 207.805 114.492 204.83 114.492C201.855 114.492 199.441 112.079 199.441 109.103C199.441 106.128 201.855 103.715 204.83 103.715ZM194.05 83.9532C197.777 81.4688 201.503 84.1379 203.449 86.0227C204.058 86.6122 203.808 87.6242 202.988 87.8493C199.813 88.7171 195.214 91.2344 193.228 92.3703C192.671 92.6891 191.955 92.464 191.705 91.8745C190.961 90.1238 190.136 86.5641 194.05 83.9557V83.9532Z" fill="#E8C285"/>
<path d="M311.518 257.203C311.548 258.666 311.543 259.235 311.518 259.258C311.417 268.983 309.858 287.813 306.185 289.579C308.583 294.525 310.501 299.39 311.72 304.022C311.72 304.025 311.72 304.03 311.723 304.032C320.707 338.166 293.758 372.3 293.758 372.3C293.758 372.3 292.837 380.811 291.903 392.975C291.536 397.759 291.167 403.108 290.848 408.727C309.436 409.384 329.24 403.376 340.407 399.285C346.019 397.228 349.452 395.657 349.452 395.657C349.452 395.657 328.901 294.487 311.525 256.74C311.525 256.897 311.525 257.051 311.518 257.206V257.203Z" fill="#8BD3E2"/>
<path d="M252.434 223.218C252.434 223.218 252.441 223.218 252.444 223.218L252.436 223.186C252.436 223.186 252.436 223.196 252.436 223.218H252.434Z" fill="#8BD3E2"/>
<path d="M0.0186102 457.635C0.413281 464.002 2.26265 486.296 4.61043 505.984H61.7214L61.1015 463.023L72.1498 416.784C48.1684 416.652 23.8102 408.88 12.2762 404.635C7.13027 422.628 -0.42413 450.503 0.0186102 457.632V457.635Z" fill="#E8C285"/>
<path d="M205.69 114.39C208.628 113.913 210.623 111.145 210.146 108.208C209.669 105.27 206.901 103.275 203.963 103.752C201.026 104.229 199.031 106.997 199.508 109.934C199.985 112.872 202.753 114.867 205.69 114.39Z" fill="black"/>
<path d="M260.519 110.899C263.495 110.899 265.908 108.486 265.908 105.51C265.908 102.534 263.495 100.121 260.519 100.121C257.543 100.121 255.13 102.534 255.13 105.51C255.13 108.486 257.543 110.899 260.519 110.899Z" fill="black"/>
<path d="M193.225 92.3665C195.211 91.2306 199.813 88.7158 202.986 87.8455C203.806 87.6203 204.056 86.6109 203.446 86.0189C201.501 84.1341 197.774 81.465 194.048 83.9494C190.134 86.5578 190.956 90.1174 191.702 91.8681C191.953 92.4576 192.669 92.6828 193.225 92.364V92.3665Z" fill="black"/>
<path d="M263.386 85.8601C264.977 86.1283 268.048 87.034 270.553 90.1206C270.981 90.6468 271.815 90.5658 272.154 89.9789C272.934 88.6304 273.642 86.2902 271.302 83.95C268.58 81.2278 264.828 83.6616 263.168 85C262.839 85.2656 262.971 85.7868 263.388 85.8576L263.386 85.8601Z" fill="black"/>
<path d="M235.369 141.442L250.842 138.629C252.831 138.267 253.764 135.955 252.58 134.315L243.455 121.681L231.777 105.512L233.393 121.681L235.369 141.442Z" fill="#C9A673"/>
<path d="M226.385 170.186C234.317 172.83 239.331 166.72 241.426 163.307C242.048 162.293 241.486 160.975 240.323 160.727L219.122 156.183C218.168 155.978 217.282 156.712 217.29 157.688C217.318 160.939 218.411 167.53 226.385 170.189V170.186Z" fill="#332031"/>
<path d="M223.691 196.236C223.691 196.236 215.81 194.508 206.624 191.326C199.11 188.722 190.723 185.145 185.066 180.74C185.066 180.74 191.128 190.946 206.624 198.412C211.33 200.679 216.895 202.695 223.438 204.094C223.438 204.094 223.44 204.094 223.443 204.094L223.691 196.239V196.234V196.236Z" fill="#C9A673"/>
<path d="M85.3763 352.534C85.6749 352.233 85.9759 351.932 86.2694 351.628C86.444 351.448 86.6135 351.271 86.7855 351.092C87.0512 350.816 87.3168 350.54 87.5774 350.264C87.757 350.075 87.9367 349.882 88.1138 349.69C88.3617 349.424 88.6096 349.156 88.855 348.891C89.0346 348.693 89.2143 348.498 89.3914 348.301C89.6292 348.038 89.867 347.775 90.1023 347.512C90.2794 347.312 90.4565 347.112 90.6336 346.912C90.8638 346.649 91.094 346.386 91.3217 346.12C91.4937 345.92 91.6658 345.721 91.8378 345.521C92.0655 345.253 92.2907 344.987 92.5158 344.719C92.6803 344.521 92.8473 344.324 93.0117 344.124C93.2394 343.848 93.4646 343.573 93.6872 343.297C93.8416 343.107 93.9984 342.917 94.1502 342.725C94.3855 342.432 94.6182 342.136 94.851 341.842C94.9876 341.67 95.1242 341.498 95.2583 341.324C95.5315 340.974 95.7997 340.623 96.0653 340.274C96.1564 340.155 96.2475 340.036 96.3386 339.917C96.6928 339.446 97.0444 338.976 97.3885 338.505C97.4695 338.394 97.5479 338.283 97.6314 338.171C97.892 337.812 98.1526 337.45 98.4106 337.091C98.5346 336.916 98.6535 336.742 98.7774 336.567C98.9874 336.269 99.1974 335.968 99.4049 335.669C99.5389 335.477 99.668 335.282 99.7995 335.09C99.9918 334.809 100.182 334.526 100.369 334.245C100.503 334.042 100.637 333.84 100.769 333.638C100.948 333.364 101.128 333.089 101.307 332.813C101.441 332.605 101.573 332.4 101.705 332.193C101.877 331.92 102.049 331.649 102.221 331.376C102.35 331.168 102.479 330.961 102.608 330.753C102.777 330.48 102.944 330.204 103.109 329.931C103.233 329.726 103.357 329.521 103.481 329.314C103.648 329.036 103.812 328.755 103.974 328.477C104.09 328.277 104.209 328.077 104.326 327.877C104.493 327.586 104.657 327.295 104.824 327.004C104.93 326.814 105.039 326.627 105.145 326.437C105.325 326.119 105.5 325.797 105.674 325.479C105.763 325.319 105.851 325.157 105.937 324.998C106.18 324.55 106.418 324.102 106.653 323.652C106.671 323.619 106.686 323.589 106.704 323.556C106.954 323.075 107.202 322.594 107.445 322.114C107.523 321.959 107.597 321.805 107.675 321.653C107.84 321.327 108.002 320.998 108.161 320.672C108.252 320.484 108.341 320.297 108.432 320.11C108.573 319.817 108.715 319.521 108.852 319.227C108.945 319.027 109.039 318.827 109.13 318.625C109.262 318.344 109.391 318.061 109.52 317.78C109.613 317.572 109.704 317.368 109.798 317.16C109.922 316.884 110.043 316.606 110.165 316.33C110.256 316.123 110.344 315.915 110.435 315.708C110.554 315.432 110.671 315.156 110.787 314.881C110.876 314.673 110.962 314.466 111.048 314.258C111.162 313.98 111.275 313.704 111.387 313.426C111.47 313.221 111.554 313.016 111.635 312.811C111.748 312.528 111.857 312.244 111.969 311.961C112.044 311.764 112.123 311.566 112.199 311.369C112.249 311.24 112.297 311.108 112.346 310.979C112.844 309.651 113.282 308.3 113.654 306.932C113.6 306.878 113.54 306.81 113.471 306.729C109.803 302.924 73.2681 263.561 92.8549 225.088C78.0952 227.334 60.1047 232.238 51.2272 242.952C25.1764 274.391 5.41498 401.946 5.41498 401.946C5.41498 401.946 7.9424 403.044 12.2838 404.643C23.8153 408.886 48.1735 416.66 72.1574 416.792C75.6841 416.812 79.2008 416.668 82.6693 416.321L83.5675 354.34C84.0304 353.892 84.4858 353.442 84.9387 352.992C85.0879 352.842 85.2372 352.691 85.3865 352.539L85.3763 352.534Z" fill="#8BD3E2"/>
<path d="M290.848 408.724C291.165 403.105 291.536 397.756 291.903 392.972C292.837 380.808 293.758 372.297 293.758 372.297C293.758 372.297 320.707 338.163 311.723 304.029C311.723 304.027 311.723 304.022 311.72 304.019C311.24 302.2 310.286 299.587 309.302 297.082C307.472 292.425 305.051 288.028 302.096 283.987L291.24 269.141C290.018 269.319 288.865 269.475 287.827 269.632L279.198 270.94C274.444 271.661 269.587 271.196 265.055 269.589L259.525 267.626C255.697 266.267 252.661 263.667 250.711 260.431C250.518 260.115 250.339 259.791 250.169 259.462C248.178 255.614 247.657 251.012 249.071 246.572L250.561 241.884L252.327 229.753L253.086 225.578L252.444 223.213C252.444 223.213 252.436 223.213 252.434 223.213C250.582 223.233 248.135 223.263 245.373 223.312C238.314 223.433 229.209 223.663 222.793 224.078C222.793 224.078 236.515 256.107 233.859 283.365C233.401 288.06 232.462 292.614 230.876 296.839C230.876 296.839 222.094 291.65 210.467 283.365C209.215 282.472 207.932 281.546 206.621 280.584C193.337 270.837 177.426 257.658 166.595 243.759C166.165 258.571 150.689 264.274 142.669 273.387C138.29 278.363 129.418 277.698 121.097 274.738L113.76 307.02C113.76 307.02 113.722 306.982 113.651 306.908C113.651 306.914 113.651 306.916 113.648 306.921C113.277 308.29 112.839 309.641 112.341 310.969C112.315 311.04 112.29 311.108 112.265 311.179C112.242 311.24 112.217 311.298 112.194 311.359C112.118 311.556 112.039 311.753 111.964 311.951C111.852 312.234 111.743 312.517 111.63 312.801C111.549 313.006 111.465 313.211 111.382 313.415C111.27 313.694 111.156 313.97 111.043 314.248C110.957 314.455 110.871 314.663 110.782 314.87C110.666 315.146 110.549 315.422 110.43 315.697C110.342 315.905 110.251 316.112 110.16 316.32C110.038 316.596 109.917 316.874 109.793 317.15C109.702 317.357 109.608 317.562 109.515 317.77C109.386 318.05 109.257 318.334 109.125 318.615C109.031 318.814 108.94 319.014 108.847 319.217C108.708 319.51 108.568 319.806 108.427 320.1C108.336 320.287 108.247 320.474 108.156 320.661C107.997 320.99 107.832 321.316 107.67 321.643C107.594 321.797 107.518 321.952 107.44 322.103C107.197 322.584 106.952 323.065 106.699 323.545C106.681 323.578 106.666 323.609 106.648 323.642C106.413 324.089 106.175 324.54 105.932 324.987C105.846 325.147 105.755 325.309 105.669 325.468C105.494 325.787 105.32 326.108 105.14 326.427C105.034 326.617 104.925 326.804 104.819 326.994C104.655 327.285 104.49 327.576 104.321 327.867C104.204 328.066 104.088 328.266 103.969 328.466C103.804 328.744 103.64 329.025 103.476 329.304C103.354 329.508 103.228 329.713 103.104 329.921C102.937 330.194 102.77 330.47 102.603 330.743C102.474 330.951 102.347 331.158 102.216 331.365C102.046 331.639 101.874 331.909 101.7 332.183C101.568 332.39 101.436 332.595 101.302 332.802C101.125 333.078 100.946 333.351 100.763 333.627C100.629 333.83 100.498 334.032 100.364 334.234C100.177 334.515 99.9843 334.799 99.7945 335.079C99.663 335.272 99.5314 335.466 99.3999 335.659C99.1924 335.957 98.9824 336.258 98.7724 336.557C98.651 336.731 98.5295 336.906 98.4056 337.081C98.15 337.442 97.8895 337.802 97.6264 338.161C97.5454 338.272 97.467 338.383 97.3835 338.495C97.0394 338.965 96.6878 339.436 96.3336 339.907C96.245 340.025 96.1514 340.144 96.0603 340.263C95.7947 340.615 95.5265 340.964 95.2533 341.313C95.1192 341.485 94.9801 341.66 94.846 341.832C94.6132 342.128 94.3805 342.421 94.1452 342.715C93.9934 342.905 93.8365 343.097 93.6822 343.287C93.457 343.562 93.2344 343.838 93.0067 344.114C92.8423 344.311 92.6778 344.508 92.5108 344.708C92.2856 344.977 92.0605 345.242 91.8328 345.51C91.6633 345.71 91.4887 345.91 91.3167 346.11C91.089 346.373 90.8588 346.639 90.6285 346.902C90.4514 347.102 90.2769 347.302 90.0973 347.501C89.862 347.765 89.6242 348.028 89.3864 348.291C89.2093 348.488 89.0296 348.685 88.85 348.88C88.6046 349.148 88.3567 349.414 88.1087 349.68C87.9291 349.872 87.752 350.062 87.5724 350.254C87.3118 350.53 87.0461 350.806 86.7805 351.081C86.6085 351.261 86.4389 351.441 86.2644 351.618C85.9709 351.921 85.6698 352.222 85.3713 352.523C85.222 352.673 85.0753 352.824 84.9235 352.976C84.4706 353.427 84.0153 353.877 83.5523 354.325C83.5523 354.325 101.517 413.611 99.7211 422.593C98.4941 428.723 81.3816 464.127 71.7703 505.974H297.431C295.764 490.38 293.859 475.238 291.954 465.71C289.252 452.196 289.712 428.74 290.841 408.716L290.848 408.724ZM162.12 296.384L153.801 297.56L152.736 292.227L144.888 293.338L143.76 287.683L151.608 286.573L150.543 281.24L158.861 280.063L159.926 285.396L167.774 284.286L168.902 289.94L161.055 291.051L162.12 296.384Z" fill="#17A6C6"/>
<path d="M113.466 306.723C113.542 306.802 113.605 306.865 113.651 306.913C113.722 306.986 113.76 307.024 113.76 307.024L121.097 274.742C113.56 272.061 106.474 267.494 103.589 263.527C98.0336 255.887 99.372 228.761 99.6376 224.217L92.8472 225.082C73.2604 263.555 109.798 302.918 113.464 306.723H113.466Z" fill="#8BD3E2"/>
<path d="M103.589 263.527C106.476 267.494 113.56 272.061 121.097 274.743C129.418 277.705 138.29 278.371 142.669 273.392C150.689 264.279 166.165 258.579 166.595 243.764C166.613 243.156 166.608 242.536 166.575 241.899C166.299 236.799 167.169 231.051 169.082 224.908C178.901 193.38 175.065 162.049 171.41 142.776C169.945 135.049 168.508 129.256 167.994 126.172C167.939 125.835 167.885 125.481 167.837 125.114C167.713 124.193 167.615 123.179 167.534 122.078C167.519 121.858 167.503 121.633 167.488 121.408C167.46 120.953 167.435 120.484 167.415 120.004C167.362 118.802 167.331 117.517 167.324 116.161C167.324 115.89 167.321 115.614 167.321 115.339C167.321 113.408 167.364 111.339 167.448 109.155C167.448 109.133 167.448 109.107 167.45 109.082C167.524 107.21 167.627 105.257 167.764 103.23C167.81 102.55 167.858 101.864 167.911 101.168C168.042 99.4328 168.197 97.6492 168.371 95.8302C168.472 94.7727 168.584 93.705 168.7 92.6247C168.784 91.8455 168.872 91.0612 168.963 90.2694C169.09 89.1815 169.224 88.0835 169.365 86.9779C169.375 86.8919 169.388 86.8033 169.398 86.7173C169.78 83.7472 170.215 80.7214 170.704 77.6728C170.721 77.564 170.739 77.4552 170.757 77.3464C171.382 73.463 172.093 69.5441 172.887 65.6555C173.049 64.8662 173.213 64.0794 173.383 63.2926C173.593 62.311 173.864 61.3724 174.19 60.4742C174.322 60.115 174.461 59.7633 174.607 59.4192C174.754 59.0726 174.911 58.7362 175.075 58.4022C175.187 58.177 175.303 57.9569 175.422 57.7368C175.622 57.37 175.829 57.0133 176.047 56.6616C176.148 56.4997 176.249 56.3403 176.356 56.1834C176.421 56.0848 176.487 55.9886 176.553 55.8925C176.728 55.6395 176.907 55.389 177.092 55.1436C177.309 54.8552 177.535 54.5719 177.767 54.2961C177.884 54.157 178 54.0203 178.119 53.8863C178.476 53.4789 178.85 53.0868 179.235 52.7073C179.493 52.4543 179.756 52.2064 180.024 51.9635C181.102 50.9945 182.273 50.1141 183.513 49.3147C183.824 49.1148 184.138 48.92 184.457 48.7302C185.094 48.3507 185.749 47.989 186.42 47.6474C186.587 47.5614 186.756 47.4779 186.923 47.3944C188.952 46.3976 191.1 45.5653 193.304 44.8746C193.488 44.8164 193.671 44.7608 193.855 44.7051C194.776 44.4268 195.705 44.1713 196.636 43.9385C197.567 43.7058 198.503 43.4933 199.434 43.3035C200.552 43.0733 201.668 42.8734 202.773 42.6988C202.958 42.6685 203.14 42.6407 203.325 42.6128C203.692 42.5572 204.056 42.504 204.42 42.4534C204.602 42.4282 204.782 42.4028 204.964 42.3801C205.506 42.3092 206.045 42.2435 206.576 42.1827C207.641 42.0613 208.683 41.9626 209.695 41.8817C212.058 41.6945 214.254 41.6034 216.172 41.5705C216.308 41.5705 216.445 41.5654 216.579 41.5654C217.25 41.5578 217.885 41.5553 218.477 41.5578C218.596 41.5578 218.712 41.5578 218.828 41.5578C219.059 41.5578 219.284 41.5629 219.499 41.5654C221.667 41.5983 223.124 41.6919 223.549 41.7223C223.592 41.7248 223.625 41.7274 223.645 41.7299C223.668 41.7299 223.678 41.7299 223.678 41.7299C224.857 42.0664 225.973 42.3725 227.04 42.6483C230.598 43.5717 233.621 44.1738 236.652 44.571C238.623 44.8291 240.598 44.9986 242.729 45.1099C243.058 45.1276 243.389 45.1428 243.723 45.158C245.57 45.2389 247.543 45.2794 249.737 45.3022C250.136 45.3072 250.541 45.3097 250.956 45.3123C251.371 45.3148 251.791 45.3173 252.221 45.3199C253.941 45.3275 255.793 45.3275 257.815 45.3275C273.984 45.3275 282.069 71.3783 283.866 76.7671C283.952 77.0276 284.033 77.3515 284.108 77.7386C284.146 77.9308 284.182 78.1383 284.215 78.3609C284.25 78.5836 284.283 78.8214 284.313 79.0718C284.344 79.3223 284.374 79.588 284.404 79.8662C284.432 80.1445 284.46 80.438 284.488 80.7441C284.528 81.202 284.564 81.6903 284.599 82.2039C284.645 82.8895 284.685 83.6257 284.721 84.4075C284.748 84.9919 284.771 85.6041 284.794 86.2366C284.809 86.6591 284.822 87.0918 284.837 87.5345C284.862 88.42 284.885 89.3459 284.903 90.3048C284.921 91.2636 284.936 92.2604 284.948 93.2851C284.953 93.7986 284.959 94.3198 284.964 94.846C284.969 95.3723 284.971 95.9086 284.976 96.45C284.981 97.2621 284.984 98.0894 284.986 98.9319C284.989 100.333 284.989 101.773 284.986 103.238C284.986 103.825 284.984 104.417 284.981 105.011C284.981 105.31 284.981 105.608 284.979 105.907C284.974 107.106 284.966 108.318 284.959 109.542C284.953 110.155 284.951 110.769 284.946 111.387C284.938 112.621 284.928 113.864 284.918 115.111C284.913 115.733 284.908 116.358 284.903 116.986C284.898 117.61 284.893 118.238 284.888 118.863C284.88 119.801 284.872 120.74 284.862 121.679C284.857 122.339 284.852 122.999 284.845 123.66C284.835 124.978 284.822 126.291 284.814 127.591C284.809 128.241 284.804 128.889 284.802 129.534C284.07 134.566 283.17 139.472 282.14 144.218C281.728 146.115 281.298 147.99 280.847 149.834C280.174 152.602 279.461 155.309 278.72 157.945C278.472 158.823 278.221 159.696 277.968 160.559C277.46 162.284 276.941 163.979 276.415 165.641C275.623 168.133 274.811 170.547 273.989 172.877C263.209 203.419 223.686 196.233 223.686 196.233V196.239L223.438 204.094C223.438 204.094 223.435 204.094 223.433 204.094L222.788 224.081C229.204 223.666 238.309 223.435 245.367 223.314C248.13 223.266 250.577 223.236 252.428 223.215C252.428 223.195 252.428 223.182 252.428 223.182L252.436 223.215L253.079 225.581L252.32 229.755L250.554 241.886L249.064 246.574C247.652 251.014 248.171 255.616 250.162 259.464C250.331 259.793 250.511 260.117 250.703 260.433C252.654 263.669 255.692 266.27 259.517 267.629L265.048 269.592C269.579 271.201 274.436 271.664 279.19 270.943L287.82 269.635C288.857 269.478 290.013 269.319 291.233 269.144C295.642 268.509 300.953 267.634 305.036 265.673C308.371 264.071 310.883 261.744 311.412 258.232C311.449 258.847 311.487 259.277 311.51 259.257C311.536 259.234 311.541 258.665 311.51 257.203C311.515 257.051 311.518 256.894 311.518 256.737C311.518 256.502 311.505 256.259 311.485 256.014C311.143 240.267 311.343 223.519 311.715 214.204C312.613 191.748 312.507 151.208 318.344 124.656C325.933 90.1277 300.31 41.7147 296.715 30.9371C293.123 20.1571 271.742 1.96171 249.286 2.85984C239.619 3.24692 221.887 -1.38035 202.126 0.415912C182.364 2.21217 167.516 3.66436 136.975 18.037C106.433 32.4096 100.548 84.4378 101.307 120.864C108.492 154.998 97.5681 158.793 99.3644 216.281C99.4428 218.793 99.5465 221.217 99.6705 223.567C99.6705 223.567 99.6554 223.8 99.6301 224.22C99.3644 228.761 98.026 255.89 103.582 263.53L103.589 263.527Z" fill="#6D5533"/>
<path d="M153.801 297.563L162.117 296.386L161.055 291.051L152.736 292.227L153.801 297.563Z" fill="white"/>
<path d="M158.864 280.062L150.545 281.239L151.61 286.572L159.926 285.396L158.864 280.062Z" fill="white"/>
<path d="M167.774 284.289L159.926 285.397L151.61 286.574L143.762 287.684L144.891 293.339L152.736 292.228L161.055 291.052L168.9 289.944L167.774 284.289Z" fill="white"/>
</svg>
